<svg width="7877" height="2040" viewBox="0 0 7877 2040" fill="none" xmlns="http://www.w3.org/2000/svg">
<path d="M4.76837e-06 1596C4.76837e-06 892 1012 1122 1012 792C1012 630 824 564 662 564C472 564 288 630 288 796C288 872 350 906 368 888C388 948 322 1004 256 1004C170 1004 112 930 112 844C112 646 348 544 662 544C888 544 1182 638 1182 796C1182 1118 176 826 176 1608C176 1816 308 1974 504 1974C720 1974 994 1752 994 1170C994 1126 990 1080 960 1072C960 1060 982 1044 1014 1044C1160 1044 1178 1196 1178 1356C1178 1534 1180 1564 1180 1776C1180 1944 1278 1980 1332 1980V2000H1190C1084 2000 1000 1902 1000 1752V1410C928 1754 796 2040 446 2040C188 2040 4.76837e-06 1854 4.76837e-06 1596ZM1772.19 2000H1232.19V1980C1404.19 1980 1416.19 1838 1416.19 1444V1140C1416.19 746 1404.19 604 1232.19 604V584H1464.19C1694.19 584 1952.19 544 2174.19 544C2352.19 544 2484.19 634 2484.19 788C2484.19 894 2426.19 982 2312.19 982C2256.19 982 2202.19 946 2202.19 890C2258.19 888 2310.19 822 2310.19 740C2310.19 648 2240.19 572 2096.19 572C1972.19 572 1702.19 594 1588.19 630V1444C1588.19 1838 1600.19 1980 1772.19 1980V2000ZM3129.75 2040C2699.75 2040 2443.75 1704 2443.75 1292C2443.75 880 2699.75 544 3129.75 544C3559.75 544 3743.75 798 3741.75 1000C3739.75 1226 3609.75 1362 3379.75 1362C3057.75 1362 2959.75 1184 2763.75 1184C2715.75 1184 2671.75 1218 2665.75 1234L2657.75 1232C2657.75 1150 2729.75 1072 2867.75 1072C3077.75 1072 3233.75 1338 3393.75 1338C3689.75 1338 3697.75 568 3125.75 568C2719.75 568 2611.75 1004 2615.75 1286C2619.75 1658 2833.75 1972 3201.75 1972C3359.75 1972 3623.75 1886 3721.75 1628L3749.75 1640C3645.75 1878 3427.75 2040 3129.75 2040ZM4476.63 2040C4046.63 2040 3790.63 1704 3790.63 1292C3790.63 880 4046.63 544 4476.63 544C4906.63 544 5090.63 798 5088.63 1000C5086.63 1226 4956.63 1362 4726.62 1362C4404.63 1362 4306.63 1184 4110.63 1184C4062.63 1184 4018.63 1218 4012.63 1234L4004.63 1232C4004.63 1150 4076.63 1072 4214.63 1072C4424.63 1072 4580.63 1338 4740.63 1338C5036.63 1338 5044.63 568 4472.63 568C4066.63 568 3958.63 1004 3962.63 1286C3966.63 1658 4180.63 1972 4548.63 1972C4706.63 1972 4970.63 1886 5068.63 1628L5096.63 1640C4992.63 1878 4774.63 2040 4476.63 2040ZM5703.5 2000H5077.5V1980C5249.5 1980 5261.5 1838 5261.5 1444V556C5261.5 162 5249.5 19.9999 5077.5 19.9999V0H5433.5V818C5553.5 638 5721.5 544 5919.5 544C6253.5 544 6505.5 780 6505.5 1164C6505.5 1696 6165.5 2000 5703.5 2000ZM5433.5 1126V1926C5501.5 1958 5577.5 1980 5679.5 1980C6021.5 1980 6333.5 1642 6333.5 1206C6333.5 756 6069.5 592 5833.5 592C5627.5 592 5433.5 732 5433.5 1126ZM6544.92 1596C6544.92 892 7556.92 1122 7556.92 792C7556.92 630 7368.92 564 7206.92 564C7016.92 564 6832.92 630 6832.92 796C6832.92 872 6894.92 906 6912.92 888C6932.92 948 6866.92 1004 6800.92 1004C6714.92 1004 6656.92 930 6656.92 844C6656.92 646 6892.92 544 7206.92 544C7432.92 544 7726.92 638 7726.92 796C7726.92 1118 6720.92 826 6720.92 1608C6720.92 1816 6852.92 1974 7048.92 1974C7264.92 1974 7538.92 1752 7538.92 1170C7538.92 1126 7534.92 1080 7504.92 1072C7504.92 1060 7526.92 1044 7558.92 1044C7704.92 1044 7722.92 1196 7722.92 1356C7722.92 1534 7724.92 1564 7724.92 1776C7724.92 1944 7822.92 1980 7876.92 1980V2000H7734.92C7628.92 2000 7544.92 1902 7544.92 1752V1410C7472.92 1754 7340.92 2040 6990.92 2040C6732.92 2040 6544.92 1854 6544.92 1596Z" fill="#131313"/>
</svg>
