<svg width="4580" height="1413" viewBox="0 0 4580 1413" fill="none" xmlns="http://www.w3.org/2000/svg">
<path d="M1571.14 383.812C1571.14 390.974 1559.1 408.227 1535.01 435.57C1468.6 511.742 1405.78 549.828 1346.53 549.828C1308.77 549.828 1277.85 536.807 1253.76 510.766C1230.32 484.073 1218.6 449.242 1218.6 406.273C1218.6 369.815 1240.09 310.896 1283.05 229.516C1303.24 191.755 1313.33 160.505 1313.33 135.766C1313.33 103.214 1295.1 75.5443 1258.64 52.7578C1222.83 29.3203 1178.89 17.6016 1126.8 17.6016C977.716 17.6016 839.37 74.8932 711.766 189.477C584.812 304.06 521.336 428.083 521.336 561.547C521.336 629.255 542.495 684.594 584.812 727.562C627.781 770.531 683.12 792.016 750.828 792.016C824.396 792.016 898.289 765.323 972.508 711.938C1047.38 657.901 1100.11 593.122 1130.71 517.602C1132.66 511.091 1135.27 507.836 1138.52 507.836C1144.38 507.836 1147.31 511.091 1147.31 517.602C1147.31 531.273 1135.92 555.688 1113.13 590.844C1090.35 625.349 1066.91 654.32 1042.82 677.758C954.93 764.346 856.297 807.641 746.922 807.641C672.703 807.641 613.133 784.854 568.211 739.281C523.289 693.708 500.828 633.161 500.828 557.641C500.828 420.271 566.909 292.992 699.07 175.805C831.883 58.6172 975.763 0.0234375 1130.71 0.0234375C1199.07 0.0234375 1252.46 16.9505 1290.87 50.8047C1329.93 84.6589 1349.46 131.208 1349.46 190.453C1349.46 234.724 1333.84 287.133 1302.59 347.68C1274.59 403.018 1260.59 440.453 1260.59 459.984C1260.59 508.161 1289.24 532.25 1346.53 532.25C1411.64 532.25 1479.02 484.073 1548.68 387.719C1554.54 379.906 1559.42 376 1563.33 376C1568.54 376 1571.14 378.604 1571.14 383.812ZM2617.04 206.078C2617.04 217.797 2610.2 223.656 2596.53 223.656C2590.67 223.656 2568.86 219.75 2531.1 211.938C2461.44 197.615 2403.5 190.453 2357.27 190.453C2252.46 222.354 2159.68 284.203 2078.95 376C1998.88 467.797 1907.4 616.56 1804.54 822.289C1646.99 1138.04 1445.16 1324.57 1199.07 1381.86C1250.5 1389.67 1295.1 1393.58 1332.86 1393.58C1452.65 1393.58 1553.24 1355.17 1634.62 1278.34C1713.39 1204.12 1778.82 1125.35 1830.91 1042.02C1836.77 1032.9 1841.32 1028.34 1844.58 1028.34C1848.48 1028.34 1850.76 1029.65 1851.41 1032.25C1851.41 1042.02 1813.98 1092.47 1739.11 1183.62C1669.45 1268.9 1605.97 1327.82 1548.68 1360.38C1491.39 1392.28 1421.4 1408.23 1338.72 1408.23C1291.19 1408.23 1233.25 1401.39 1164.89 1387.72C1123.22 1401.39 1075.37 1408.23 1021.34 1408.23C983.576 1408.23 964.695 1401.39 964.695 1387.72C964.695 1372.09 990.086 1364.28 1040.87 1364.28C1076.67 1364.28 1118.02 1367.54 1164.89 1374.05C1265.8 1349.96 1341.97 1310.24 1393.41 1254.91C1445.49 1199.57 1545.42 1049.83 1693.21 805.688H1317.23C1157.73 973.656 1034.36 1093.12 947.117 1164.09C743.341 1329.45 551.284 1412.13 370.945 1412.13C268.081 1412.13 180.516 1388.04 108.25 1339.87C36.6354 1291.69 0.828125 1233.1 0.828125 1164.09C0.828125 1128.28 11.5703 1097.68 33.0547 1072.29C55.1901 1046.9 81.8828 1034.2 113.133 1034.2C155.451 1034.2 176.609 1054.71 176.609 1095.73C176.609 1117.21 169.122 1135.77 154.148 1151.39C139.826 1166.36 122.898 1173.85 103.367 1173.85C72.7682 1173.85 57.4688 1159.2 57.4688 1129.91L59.4219 1110.38C60.724 1107.77 61.375 1104.19 61.375 1099.63C61.375 1093.12 58.4453 1089.87 52.5859 1089.87C46.0755 1089.87 39.5651 1098.01 33.0547 1114.28C26.5443 1130.56 23.2891 1147.16 23.2891 1164.09C23.2891 1227.89 56.8177 1281.92 123.875 1326.2C190.932 1369.82 273.289 1391.62 370.945 1391.62C510.919 1391.62 664.891 1322.94 832.859 1185.57C871.271 1154.97 913.914 1114.61 960.789 1064.48C1053.89 966.82 1128.11 890.648 1183.45 835.961L1212.74 805.688H1023.29L1035.01 788.109C1097.51 788.109 1161.64 788.76 1227.39 790.062C1418.15 577.823 1603.04 422.875 1782.08 325.219C1961.77 226.911 2151.54 177.107 2351.41 175.805C2397.64 166.69 2440.93 162.133 2481.3 162.133C2571.79 162.133 2617.04 176.781 2617.04 206.078ZM2307.47 194.359C2137.55 202.823 1979.99 251.651 1834.81 340.844C1689.63 430.036 1522.31 579.776 1332.86 790.062H1702.98C1786.31 644.88 1886.9 514.672 2004.73 399.438C2120.62 284.854 2221.53 216.495 2307.47 194.359ZM2381.69 1070.34C2381.69 1075.54 2362.16 1099.31 2323.09 1141.62C2273.61 1196.31 2227.07 1223.66 2183.45 1223.66C2133.97 1223.66 2109.23 1195.01 2109.23 1137.72C2109.23 1119.49 2113.13 1096.38 2120.95 1068.38C2079.93 1104.19 2046.4 1139.67 2020.36 1174.83C1994.97 1209.98 1950.7 1281.6 1887.55 1389.67C1853.04 1387.07 1832.86 1385.77 1827 1385.77C1824.4 1385.77 1804.54 1387.07 1767.43 1389.67L1927.59 1129.91C2007.66 999.698 2047.7 918.969 2047.7 887.719C2047.7 869.49 2040.22 860.375 2025.24 860.375C1988.78 860.375 1922.7 930.362 1827 1070.34C1821.14 1079.45 1815.93 1084.01 1811.38 1084.01C1808.77 1083.36 1807.47 1081.4 1807.47 1078.15C1808.12 1074.89 1809.42 1072.29 1811.38 1070.34L1828.95 1045.92C1929.21 912.458 1997.25 845.727 2033.05 845.727C2085.14 845.727 2111.18 879.255 2111.18 946.312C2111.18 996.443 2084.49 1062.85 2031.1 1145.53C2064.96 1106.47 2097.18 1074.57 2127.78 1049.83C2152.52 991.885 2183.12 943.383 2219.58 904.32C2256.69 865.258 2289.89 845.727 2319.19 845.727C2339.37 845.727 2349.46 854.516 2349.46 872.094C2349.46 903.344 2304.21 947.94 2213.72 1005.88C2199.4 1015 2177.91 1028.34 2149.27 1045.92L2137.55 1055.69C2128.43 1085.64 2123.88 1110.38 2123.88 1129.91C2123.88 1184.59 2144.38 1211.94 2185.4 1211.94C2236.18 1211.94 2291.52 1169.95 2351.41 1085.96C2364.43 1071.64 2372.57 1064.48 2375.83 1064.48C2379.73 1064.48 2381.69 1066.43 2381.69 1070.34ZM2873.88 1070.34C2873.88 1072.29 2868.02 1080.75 2856.3 1095.73L2814.3 1148.46C2679.54 1315.13 2563.98 1398.46 2467.62 1398.46C2422.05 1398.46 2383.64 1382.18 2352.39 1349.63C2321.79 1316.43 2306.49 1275.09 2306.49 1225.61C2306.49 1108.42 2388.2 1005.23 2551.61 916.039C2637.55 869.164 2707.53 845.727 2761.57 845.727C2785.01 845.727 2804.86 852.888 2821.14 867.211C2838.07 880.883 2846.53 897.81 2846.53 917.992C2846.53 964.867 2815.93 1004.91 2754.73 1038.11C2693.54 1070.66 2591.32 1101.26 2448.09 1129.91C2403.82 1196.96 2381.69 1252.95 2381.69 1297.88C2381.69 1353.86 2411.96 1381.86 2472.51 1381.86C2575.37 1381.86 2701.35 1281.27 2850.44 1080.1C2858.25 1069.68 2864.76 1064.48 2869.97 1064.48C2872.57 1065.13 2873.88 1067.08 2873.88 1070.34ZM2791.84 889.672C2791.84 868.839 2780.45 858.422 2757.66 858.422C2723.16 858.422 2677.59 882.51 2620.95 930.688C2564.96 978.214 2509.94 1040.06 2455.91 1116.23C2549.66 1092.15 2629.08 1058.29 2694.19 1014.67C2759.29 970.401 2791.84 928.734 2791.84 889.672ZM3366.06 1070.34C3366.06 1072.29 3360.2 1080.75 3348.48 1095.73L3306.49 1148.46C3171.73 1315.13 3056.17 1398.46 2959.81 1398.46C2914.24 1398.46 2875.83 1382.18 2844.58 1349.63C2813.98 1316.43 2798.68 1275.09 2798.68 1225.61C2798.68 1108.42 2880.39 1005.23 3043.8 916.039C3129.73 869.164 3199.72 845.727 3253.76 845.727C3277.2 845.727 3297.05 852.888 3313.33 867.211C3330.26 880.883 3338.72 897.81 3338.72 917.992C3338.72 964.867 3308.12 1004.91 3246.92 1038.11C3185.72 1070.66 3083.51 1101.26 2940.28 1129.91C2896.01 1196.96 2873.88 1252.95 2873.88 1297.88C2873.88 1353.86 2904.15 1381.86 2964.7 1381.86C3067.56 1381.86 3193.54 1281.27 3342.62 1080.1C3350.44 1069.68 3356.95 1064.48 3362.16 1064.48C3364.76 1065.13 3366.06 1067.08 3366.06 1070.34ZM3284.03 889.672C3284.03 868.839 3272.64 858.422 3249.85 858.422C3215.35 858.422 3169.77 882.51 3113.13 930.688C3057.14 978.214 3002.13 1040.06 2948.09 1116.23C3041.84 1092.15 3121.27 1058.29 3186.38 1014.67C3251.48 970.401 3284.03 928.734 3284.03 889.672ZM3890.48 389.672L3452 1082.05C3520.36 988.305 3571.47 925.479 3605.32 893.578C3639.17 861.677 3671.4 845.727 3702 845.727C3738.46 845.727 3768.08 860.701 3790.87 890.648C3814.3 919.945 3826.02 957.055 3826.02 1001.98C3826.02 1100.28 3763.52 1196.96 3638.52 1292.02C3545.42 1362.98 3462.74 1398.46 3390.48 1398.46C3356.62 1398.46 3328.95 1385.77 3307.47 1360.38C3286.64 1334.33 3276.22 1300.8 3276.22 1259.79C3276.22 1210.96 3307.47 1136.42 3369.97 1036.16L3774.27 387.719C3791.84 392.927 3810.72 395.531 3830.91 395.531C3846.53 395.531 3866.39 393.578 3890.48 389.672ZM3754.73 925.805C3754.73 882.185 3736.51 860.375 3700.05 860.375C3652.52 860.375 3571.47 938.826 3456.88 1095.73C3370.95 1212.91 3327.98 1291.69 3327.98 1332.05C3327.98 1366.56 3344.9 1383.81 3378.76 1383.81C3437.35 1383.81 3514.5 1325.54 3610.2 1209.01C3706.56 1091.82 3754.73 997.419 3754.73 925.805ZM4579.93 1070.34C4579.93 1084.01 4532.4 1147.16 4437.35 1259.79C4360.53 1352.24 4299.98 1398.46 4255.71 1398.46C4225.76 1398.46 4201.35 1387.39 4182.47 1365.26C4163.59 1342.47 4154.15 1314.15 4154.15 1280.3C4154.15 1245.14 4164.57 1207.05 4185.4 1166.04C4120.29 1257.18 4070.49 1318.71 4035.98 1350.61C4001.48 1382.51 3967.95 1398.46 3935.4 1398.46C3900.89 1398.46 3871.92 1383.81 3848.48 1354.52C3825.05 1324.57 3813.33 1287.13 3813.33 1242.21C3813.33 1117.21 3901.54 1006.53 4077.98 910.18C4155.45 867.211 4217.95 845.727 4265.48 845.727C4305.84 845.727 4326.02 865.258 4326.02 904.32C4326.02 915.388 4323.42 930.036 4318.21 948.266L4368.02 853.539C4387.55 858.096 4404.8 860.375 4419.77 860.375C4437.35 860.375 4460.14 858.096 4488.13 853.539L4315.28 1139.67C4255.39 1239.93 4225.44 1306.01 4225.44 1337.91C4225.44 1368.51 4238.13 1383.81 4263.52 1383.81C4289.57 1383.81 4331.23 1354.19 4388.52 1294.95C4445.82 1235.05 4504.08 1161.48 4563.33 1074.24C4567.23 1067.73 4570.82 1064.48 4574.07 1064.48C4577.98 1064.48 4579.93 1066.43 4579.93 1070.34ZM4311.38 908.227C4311.38 876.326 4296.73 860.375 4267.43 860.375C4207.53 860.375 4128.76 918.969 4031.1 1036.16C3934.1 1153.34 3885.59 1248.07 3885.59 1320.34C3885.59 1362.65 3904.47 1383.81 3942.23 1383.81C3987.16 1383.81 4064.96 1309.27 4175.63 1160.18C4266.13 1037.78 4311.38 953.799 4311.38 908.227Z" fill="#0F0E0E"/>
</svg>
