<svg width="5937" height="1586" viewBox="0 0 5937 1586" fill="none" xmlns="http://www.w3.org/2000/svg">
<g filter="url(#filter0_d_3_3)">
<path d="M389 1577.4C301 1577.4 228.4 1562.73 171.2 1533.4C114 1504.07 71.4667 1464.47 43.6 1414.6C17.2 1364.73 4 1309.73 4 1249.6C4 1182.13 20.8667 1122.73 54.6 1071.4C89.8 1020.07 142.6 980.467 213 952.6C283.4 923.267 372.133 908.6 479.2 908.6H754.2C754.2 854.333 746.133 809.6 730 774.4C715.333 739.2 691.867 713.533 659.6 697.4C628.8 679.8 589.2 671 540.8 671C483.6 671 434.467 683.467 393.4 708.4C353.8 733.333 328.867 772.933 318.6 827.2H30.4C39.2 746.533 65.6 676.867 109.6 618.2C155.067 559.533 214.467 514.067 287.8 481.8C362.6 449.533 446.933 433.4 540.8 433.4C646.4 433.4 737.333 451 813.6 486.2C889.867 519.933 948.533 570.533 989.6 638C1030.67 704 1051.2 784.667 1051.2 880V1551H802.6L771.8 1381.6H765.2C744.667 1413.87 721.2 1442.47 694.8 1467.4C668.4 1490.87 639.8 1510.67 609 1526.8C578.2 1542.93 543.733 1555.4 505.6 1564.2C468.933 1573 430.067 1577.4 389 1577.4ZM481.4 1348.6C521 1348.6 556.2 1342 587 1328.8C617.8 1314.13 643.467 1295.07 664 1271.6C686 1248.13 702.867 1221 714.6 1190.2C727.8 1157.93 736.6 1124.93 741 1091.2H512.2C466.733 1091.2 429.333 1097.07 400 1108.8C372.133 1119.07 351.6 1134.47 338.4 1155C325.2 1174.07 318.6 1196.8 318.6 1223.2C318.6 1249.6 325.2 1272.33 338.4 1291.4C351.6 1310.47 370.667 1325.13 395.6 1335.4C420.533 1344.2 449.133 1348.6 481.4 1348.6ZM1041.92 1551V459.8H1297.12L1323.52 690.8H1330.12C1360.92 620.4 1395.39 566.867 1433.52 530.2C1473.12 493.533 1517.12 468.6 1565.52 455.4C1615.39 440.733 1671.12 433.4 1732.72 433.4V748H1653.52C1603.65 748 1558.92 753.867 1519.32 765.6C1481.19 775.867 1448.19 793.467 1420.32 818.4C1393.92 841.867 1373.39 873.4 1358.72 913C1345.52 951.133 1338.92 998.8 1338.92 1056V1551H1041.92ZM2177.79 1577.4C2066.32 1577.4 1967.32 1553.93 1880.79 1507C1795.72 1460.07 1728.99 1394.07 1680.59 1309C1632.19 1223.93 1607.99 1126.4 1607.99 1016.4C1607.99 902 1631.46 801.533 1678.39 715C1726.79 627 1793.52 558.067 1878.59 508.2C1965.12 458.333 2065.59 433.4 2179.99 433.4C2288.52 433.4 2383.86 456.867 2465.99 503.8C2548.12 550.733 2612.66 615.267 2659.59 697.4C2706.52 778.067 2729.99 869.733 2729.99 972.4C2729.99 987.067 2729.99 1003.93 2729.99 1023C2729.99 1040.6 2728.52 1058.93 2725.59 1078H1819.19V895.4H2428.59C2424.19 826.467 2398.52 771.467 2351.59 730.4C2306.12 689.333 2248.92 668.8 2179.99 668.8C2128.66 668.8 2081.72 680.533 2039.19 704C1996.66 726 1962.92 760.467 1937.99 807.4C1913.06 852.867 1900.59 910.8 1900.59 981.2V1045C1900.59 1105.13 1912.32 1157.2 1935.79 1201.2C1959.26 1243.73 1991.52 1276.73 2032.59 1300.2C2075.12 1323.67 2122.79 1335.4 2175.59 1335.4C2229.86 1335.4 2275.32 1323.67 2311.99 1300.2C2348.66 1275.27 2376.52 1243.73 2395.59 1205.6H2699.19C2677.19 1274.53 2641.99 1337.6 2593.59 1394.8C2545.19 1450.53 2485.79 1495.27 2415.39 1529C2344.99 1561.27 2265.79 1577.4 2177.79 1577.4ZM3228.03 1577.4C3116.56 1577.4 3017.56 1553.93 2931.03 1507C2845.96 1460.07 2779.23 1394.07 2730.83 1309C2682.43 1223.93 2658.23 1126.4 2658.23 1016.4C2658.23 902 2681.7 801.533 2728.63 715C2777.03 627 2843.76 558.067 2928.83 508.2C3015.36 458.333 3115.83 433.4 3230.23 433.4C3338.76 433.4 3434.1 456.867 3516.23 503.8C3598.36 550.733 3662.9 615.267 3709.83 697.4C3756.76 778.067 3780.23 869.733 3780.23 972.4C3780.23 987.067 3780.23 1003.93 3780.23 1023C3780.23 1040.6 3778.76 1058.93 3775.83 1078H2869.43V895.4H3478.83C3474.43 826.467 3448.76 771.467 3401.83 730.4C3356.36 689.333 3299.16 668.8 3230.23 668.8C3178.9 668.8 3131.96 680.533 3089.43 704C3046.9 726 3013.16 760.467 2988.23 807.4C2963.3 852.867 2950.83 910.8 2950.83 981.2V1045C2950.83 1105.13 2962.56 1157.2 2986.03 1201.2C3009.5 1243.73 3041.76 1276.73 3082.83 1300.2C3125.36 1323.67 3173.03 1335.4 3225.83 1335.4C3280.1 1335.4 3325.56 1323.67 3362.23 1300.2C3398.9 1275.27 3426.76 1243.73 3445.83 1205.6H3749.43C3727.43 1274.53 3692.23 1337.6 3643.83 1394.8C3595.43 1450.53 3536.03 1495.27 3465.63 1529C3395.23 1561.27 3316.03 1577.4 3228.03 1577.4ZM4421.27 1577.4C4362.61 1577.4 4308.34 1568.6 4258.47 1551C4210.07 1534.87 4166.81 1512.13 4128.67 1482.8C4090.54 1452 4057.54 1414.6 4029.67 1370.6H4023.07L4003.27 1551H3750.27V-9.44138e-05H4047.27V605C4082.47 558.067 4130.87 517.733 4192.47 484C4254.07 450.267 4328.14 433.4 4414.67 433.4C4520.27 433.4 4611.94 458.333 4689.67 508.2C4768.87 556.6 4829.74 624.067 4872.27 710.6C4916.27 797.133 4938.27 895.4 4938.27 1005.4C4938.27 1115.4 4916.27 1213.67 4872.27 1300.2C4829.74 1386.73 4769.61 1454.93 4691.87 1504.8C4614.14 1553.2 4523.94 1577.4 4421.27 1577.4ZM4339.87 1328.8C4400.01 1328.8 4452.07 1314.87 4496.07 1287C4541.54 1259.13 4576.01 1221 4599.47 1172.6C4624.41 1124.2 4636.87 1067.73 4636.87 1003.2C4636.87 940.133 4624.41 884.4 4599.47 836C4576.01 787.6 4541.54 749.467 4496.07 721.6C4452.07 693.733 4400.01 679.8 4339.87 679.8C4281.21 679.8 4229.14 693.733 4183.67 721.6C4138.21 749.467 4103.01 787.6 4078.07 836C4053.14 884.4 4040.67 940.867 4040.67 1005.4C4040.67 1068.47 4053.14 1124.93 4078.07 1174.8C4103.01 1223.2 4138.21 1261.33 4183.67 1289.2C4229.14 1315.6 4281.21 1328.8 4339.87 1328.8ZM5270.68 1577.4C5182.68 1577.4 5110.08 1562.73 5052.88 1533.4C4995.68 1504.07 4953.15 1464.47 4925.28 1414.6C4898.88 1364.73 4885.68 1309.73 4885.68 1249.6C4885.68 1182.13 4902.55 1122.73 4936.28 1071.4C4971.48 1020.07 5024.28 980.467 5094.68 952.6C5165.08 923.267 5253.81 908.6 5360.88 908.6H5635.88C5635.88 854.333 5627.81 809.6 5611.68 774.4C5597.01 739.2 5573.55 713.533 5541.28 697.4C5510.48 679.8 5470.88 671 5422.48 671C5365.28 671 5316.15 683.467 5275.08 708.4C5235.48 733.333 5210.55 772.933 5200.28 827.2H4912.08C4920.88 746.533 4947.28 676.867 4991.28 618.2C5036.75 559.533 5096.15 514.067 5169.48 481.8C5244.28 449.533 5328.61 433.4 5422.48 433.4C5528.08 433.4 5619.01 451 5695.28 486.2C5771.55 519.933 5830.21 570.533 5871.28 638C5912.35 704 5932.88 784.667 5932.88 880V1551H5684.28L5653.48 1381.6H5646.88C5626.35 1413.87 5602.88 1442.47 5576.48 1467.4C5550.08 1490.87 5521.48 1510.67 5490.68 1526.8C5459.88 1542.93 5425.41 1555.4 5387.28 1564.2C5350.61 1573 5311.75 1577.4 5270.68 1577.4ZM5363.08 1348.6C5402.68 1348.6 5437.88 1342 5468.68 1328.8C5499.48 1314.13 5525.15 1295.07 5545.68 1271.6C5567.68 1248.13 5584.55 1221 5596.28 1190.2C5609.48 1157.93 5618.28 1124.93 5622.68 1091.2H5393.88C5348.41 1091.2 5311.01 1097.07 5281.68 1108.8C5253.81 1119.07 5233.28 1134.47 5220.08 1155C5206.88 1174.07 5200.28 1196.8 5200.28 1223.2C5200.28 1249.6 5206.88 1272.33 5220.08 1291.4C5233.28 1310.47 5252.35 1325.13 5277.28 1335.4C5302.21 1344.2 5330.81 1348.6 5363.08 1348.6Z" fill="#121111"/>
</g>
<defs>
<filter id="filter0_d_3_3" x="0" y="-0.00012207" width="5936.88" height="1585.4" filterUnits="userSpaceOnUse" color-interpolation-filters="sRGB">
<feFlood flood-opacity="0" result="BackgroundImageFix"/>
<feColorMatrix in="SourceAlpha" type="matrix" values="0 0 0 0 0 0 0 0 0 0 0 0 0 0 0 0 0 0 127 0" result="hardAlpha"/>
<feOffset dy="4"/>
<feGaussianBlur stdDeviation="2"/>
<feComposite in2="hardAlpha" operator="out"/>
<feColorMatrix type="matrix" values="0 0 0 0 0 0 0 0 0 0 0 0 0 0 0 0 0 0 0.25 0"/>
<feBlend mode="normal" in2="BackgroundImageFix" result="effect1_dropShadow_3_3"/>
<feBlend mode="normal" in="SourceGraphic" in2="effect1_dropShadow_3_3" result="shape"/>
</filter>
</defs>
</svg>
