<svg width="4069" height="2045" viewBox="0 0 4069 2045" fill="none" xmlns="http://www.w3.org/2000/svg">
<path d="M3485 1320V1311.75C3497.33 1301.42 3509 1291.17 3520 1281C3531.17 1270.67 3541.08 1260.42 3549.75 1250.25C3558.42 1240.08 3565.25 1230 3570.25 1220C3575.25 1209.83 3577.75 1199.92 3577.75 1190.25C3577.75 1183.25 3576.5 1176.92 3574 1171.25C3571.5 1165.42 3567.5 1160.75 3562 1157.25C3556.5 1153.75 3548.83 1152 3539 1152C3529.67 1152 3521.92 1154.08 3515.75 1158.25C3509.75 1162.25 3505.25 1167.5 3502.25 1174C3499.42 1180.33 3498.08 1187.25 3498.25 1194.75H3487C3486.83 1184.25 3488.92 1175.08 3493.25 1167.25C3497.75 1159.25 3503.92 1153.08 3511.75 1148.75C3519.58 1144.25 3528.67 1142 3539 1142C3548 1142 3556.25 1143.58 3563.75 1146.75C3571.25 1149.92 3577.33 1155 3582 1162C3586.67 1169 3589 1178.33 3589 1190C3589 1199.17 3587.08 1208.33 3583.25 1217.5C3579.58 1226.5 3574.58 1235.33 3568.25 1244C3561.92 1252.67 3554.92 1261 3547.25 1269C3539.58 1277 3531.83 1284.5 3524 1291.5C3516.33 1298.33 3509.08 1304.58 3502.25 1310.25H3596.5V1320H3485ZM3671.45 1323C3656.45 1323 3643.61 1319.25 3632.95 1311.75C3622.45 1304.08 3614.36 1293.5 3608.7 1280C3603.03 1266.33 3600.2 1250.5 3600.2 1232.5C3600.2 1214.33 3603.03 1198.5 3608.7 1185C3614.36 1171.5 3622.45 1161 3632.95 1153.5C3643.61 1145.83 3656.45 1142 3671.45 1142C3686.45 1142 3699.2 1145.83 3709.7 1153.5C3720.36 1161 3728.45 1171.58 3733.95 1185.25C3739.61 1198.75 3742.45 1214.5 3742.45 1232.5C3742.45 1250.5 3739.61 1266.33 3733.95 1280C3728.45 1293.5 3720.36 1304.08 3709.7 1311.75C3699.2 1319.25 3686.45 1323 3671.45 1323ZM3671.45 1312.75C3682.95 1312.75 3693.2 1309.58 3702.2 1303.25C3711.2 1296.75 3718.2 1287.5 3723.2 1275.5C3728.2 1263.5 3730.7 1249.17 3730.7 1232.5C3730.7 1215.83 3728.2 1201.5 3723.2 1189.5C3718.2 1177.5 3711.2 1168.33 3702.2 1162C3693.2 1155.5 3682.95 1152.25 3671.45 1152.25C3659.95 1152.25 3649.7 1155.5 3640.7 1162C3631.7 1168.5 3624.61 1177.67 3619.45 1189.5C3614.45 1201.33 3611.95 1215.67 3611.95 1232.5C3611.95 1249.17 3614.53 1263.5 3619.7 1275.5C3624.86 1287.5 3631.86 1296.75 3640.7 1303.25C3649.7 1309.58 3659.95 1312.75 3671.45 1312.75ZM3820.45 1323C3805.45 1323 3792.62 1319.25 3781.95 1311.75C3771.45 1304.08 3763.37 1293.5 3757.7 1280C3752.03 1266.33 3749.2 1250.5 3749.2 1232.5C3749.2 1214.33 3752.03 1198.5 3757.7 1185C3763.37 1171.5 3771.45 1161 3781.95 1153.5C3792.62 1145.83 3805.45 1142 3820.45 1142C3835.45 1142 3848.2 1145.83 3858.7 1153.5C3869.37 1161 3877.45 1171.58 3882.95 1185.25C3888.62 1198.75 3891.45 1214.5 3891.45 1232.5C3891.45 1250.5 3888.62 1266.33 3882.95 1280C3877.45 1293.5 3869.37 1304.08 3858.7 1311.75C3848.2 1319.25 3835.45 1323 3820.45 1323ZM3820.45 1312.75C3831.95 1312.75 3842.2 1309.58 3851.2 1303.25C3860.2 1296.75 3867.2 1287.5 3872.2 1275.5C3877.2 1263.5 3879.7 1249.17 3879.7 1232.5C3879.7 1215.83 3877.2 1201.5 3872.2 1189.5C3867.2 1177.5 3860.2 1168.33 3851.2 1162C3842.2 1155.5 3831.95 1152.25 3820.45 1152.25C3808.95 1152.25 3798.7 1155.5 3789.7 1162C3780.7 1168.5 3773.62 1177.67 3768.45 1189.5C3763.45 1201.33 3760.95 1215.67 3760.95 1232.5C3760.95 1249.17 3763.53 1263.5 3768.7 1275.5C3773.87 1287.5 3780.87 1296.75 3789.7 1303.25C3798.7 1309.58 3808.95 1312.75 3820.45 1312.75ZM3899.54 1320V1311.75C3911.87 1301.42 3923.54 1291.17 3934.54 1281C3945.71 1270.67 3955.62 1260.42 3964.29 1250.25C3972.96 1240.08 3979.79 1230 3984.79 1220C3989.79 1209.83 3992.29 1199.92 3992.29 1190.25C3992.29 1183.25 3991.04 1176.92 3988.54 1171.25C3986.04 1165.42 3982.04 1160.75 3976.54 1157.25C3971.04 1153.75 3963.37 1152 3953.54 1152C3944.21 1152 3936.46 1154.08 3930.29 1158.25C3924.29 1162.25 3919.79 1167.5 3916.79 1174C3913.96 1180.33 3912.62 1187.25 3912.79 1194.75H3901.54C3901.37 1184.25 3903.46 1175.08 3907.79 1167.25C3912.29 1159.25 3918.46 1153.08 3926.29 1148.75C3934.12 1144.25 3943.21 1142 3953.54 1142C3962.54 1142 3970.79 1143.58 3978.29 1146.75C3985.79 1149.92 3991.87 1155 3996.54 1162C4001.21 1169 4003.54 1178.33 4003.54 1190C4003.54 1199.17 4001.62 1208.33 3997.79 1217.5C3994.12 1226.5 3989.12 1235.33 3982.79 1244C3976.46 1252.67 3969.46 1261 3961.79 1269C3954.12 1277 3946.37 1284.5 3938.54 1291.5C3930.87 1298.33 3923.62 1304.58 3916.79 1310.25H4011.04V1320H3899.54Z" fill="#7D7B7C" fill-opacity="0.46"/>
<path d="M420.4 1373.6C406.2 1373.6 393.9 1370.3 383.5 1363.7C373.3 1357.1 365.4 1347.8 359.8 1335.8C354.2 1323.8 351.4 1309.7 351.4 1293.5C351.4 1277.1 354.3 1263.1 360.1 1251.5C366.1 1239.9 374.3 1231 384.7 1224.8C395.3 1218.4 407.4 1215.2 421 1215.2C435.6 1215.2 447.8 1218.5 457.6 1225.1C467.4 1231.5 474.8 1240 479.8 1250.6C484.8 1261.2 487.3 1272.8 487.3 1285.4C487.3 1287.4 487.3 1289.3 487.3 1291.1C487.3 1292.9 487.2 1295 487 1297.4H361V1285.7H474.1C473.9 1266.3 468.8 1251.7 458.8 1241.9C448.8 1232.1 436 1227.2 420.4 1227.2C410.8 1227.2 401.8 1229.4 393.4 1233.8C385 1238.2 378.1 1245 372.7 1254.2C367.5 1263.4 364.9 1275.1 364.9 1289.3V1294.7C364.9 1309.9 367.5 1322.5 372.7 1332.5C377.9 1342.3 384.7 1349.6 393.1 1354.4C401.5 1359.2 410.6 1361.6 420.4 1361.6C433 1361.6 443.4 1358.7 451.6 1352.9C459.8 1346.9 465.8 1338.5 469.6 1327.7H483.1C480.5 1336.5 476.4 1344.4 470.8 1351.4C465.4 1358.4 458.5 1363.9 450.1 1367.9C441.7 1371.7 431.8 1373.6 420.4 1373.6ZM552.691 1373.6C541.691 1373.6 531.791 1371.8 522.991 1368.2C514.191 1364.4 507.091 1358.8 501.691 1351.4C496.491 1344 493.191 1334.8 491.791 1323.8H506.191C506.991 1331.8 509.491 1338.6 513.691 1344.2C518.091 1349.8 523.691 1354.1 530.491 1357.1C537.291 1359.9 544.791 1361.3 552.991 1361.3C561.191 1361.3 568.091 1360 573.691 1357.4C579.491 1354.8 583.891 1351.2 586.891 1346.6C590.091 1341.8 591.691 1336.5 591.691 1330.7C591.691 1323.3 590.091 1317.6 586.891 1313.6C583.891 1309.4 579.291 1306.2 573.091 1304C566.891 1301.8 559.091 1299.8 549.691 1298C542.091 1296.6 535.191 1294.8 528.991 1292.6C522.991 1290.4 517.791 1287.7 513.391 1284.5C508.991 1281.3 505.591 1277.4 503.191 1272.8C500.991 1268 499.891 1262.6 499.891 1256.6C499.891 1248.4 501.891 1241.2 505.891 1235C510.091 1228.8 515.891 1224 523.291 1220.6C530.691 1217 539.491 1215.2 549.691 1215.2C564.091 1215.2 575.991 1219 585.391 1226.6C594.991 1234.2 600.491 1245.4 601.891 1260.2H588.091C587.491 1250.4 583.791 1242.5 576.991 1236.5C570.391 1230.5 561.191 1227.5 549.391 1227.5C537.991 1227.5 529.191 1230.1 522.991 1235.3C516.991 1240.3 513.991 1247 513.991 1255.4C513.991 1260.2 515.191 1264.5 517.591 1268.3C520.191 1272.1 524.291 1275.5 529.891 1278.5C535.491 1281.3 542.991 1283.7 552.391 1285.7C562.191 1287.5 571.091 1289.8 579.091 1292.6C587.291 1295.4 593.791 1299.6 598.591 1305.2C603.391 1310.8 605.791 1318.8 605.791 1329.2C605.791 1337.8 603.591 1345.5 599.191 1352.3C594.991 1358.9 588.891 1364.1 580.891 1367.9C573.091 1371.7 563.691 1373.6 552.691 1373.6ZM665.877 1370C657.877 1370 651.077 1368.8 645.477 1366.4C640.077 1364 635.877 1359.9 632.877 1354.1C630.077 1348.1 628.677 1340.1 628.677 1330.1V1230.5H602.277V1218.8H628.677L630.777 1185.8H642.177V1218.8H689.577V1230.5H642.177V1329.8C642.177 1340.4 644.277 1347.8 648.477 1352C652.677 1356.2 659.777 1358.3 669.777 1358.3H686.577V1370H665.877Z" fill="#7D7B7C" fill-opacity="0.46"/>
<path d="M60 868C60 516 566 631 566 466C566 385 472 352 391 352C296 352 204 385 204 468C204 506 235 523 244 514C254 544 221 572 188 572C145 572 116 535 116 492C116 393 234 342 391 342C504 342 651 389 651 468C651 629 148 483 148 874C148 978 214 1057 312 1057C420 1057 557 946 557 655C557 633 555 610 540 606C540 600 551 592 567 592C640 592 649 668 649 748C649 837 650 852 650 958C650 1042 699 1060 726 1060V1070H655C602 1070 560 1021 560 946V775C524 947 458 1090 283 1090C154 1090 60 997 60 868ZM956.094 1070H686.094V1060C772.094 1060 778.094 989 778.094 792V640C778.094 443 772.094 372 686.094 372V362H802.094C917.094 362 1046.09 342 1157.09 342C1246.09 342 1312.09 387 1312.09 464C1312.09 517 1283.09 561 1226.09 561C1198.09 561 1171.09 543 1171.09 515C1199.09 514 1225.09 481 1225.09 440C1225.09 394 1190.09 356 1118.09 356C1056.09 356 921.094 367 864.094 385V792C864.094 989 870.094 1060 956.094 1060V1070ZM1644.88 1090C1429.88 1090 1301.88 922 1301.88 716C1301.88 510 1429.88 342 1644.88 342C1859.88 342 1951.88 469 1950.88 570C1949.88 683 1884.88 751 1769.87 751C1608.88 751 1559.88 662 1461.88 662C1437.88 662 1415.88 679 1412.88 687L1408.88 686C1408.88 645 1444.88 606 1513.88 606C1618.88 606 1696.88 739 1776.88 739C1924.88 739 1928.88 354 1642.88 354C1439.88 354 1385.88 572 1387.88 713C1389.88 899 1496.88 1056 1680.88 1056C1759.88 1056 1891.88 1013 1940.88 884L1954.88 890C1902.88 1009 1793.88 1090 1644.88 1090ZM2328.31 1090C2113.31 1090 1985.31 922 1985.31 716C1985.31 510 2113.31 342 2328.31 342C2543.31 342 2635.31 469 2634.31 570C2633.31 683 2568.31 751 2453.31 751C2292.31 751 2243.31 662 2145.31 662C2121.31 662 2099.31 679 2096.31 687L2092.31 686C2092.31 645 2128.31 606 2197.31 606C2302.31 606 2380.31 739 2460.31 739C2608.31 739 2612.31 354 2326.31 354C2123.31 354 2069.31 572 2071.31 713C2073.31 899 2180.31 1056 2364.31 1056C2443.31 1056 2575.31 1013 2624.31 884L2638.31 890C2586.31 1009 2477.31 1090 2328.31 1090ZM2951.75 1070H2638.75V1060C2724.75 1060 2730.75 989 2730.75 792V348C2730.75 151 2724.75 79.9999 2638.75 79.9999V70H2816.75V479C2876.75 389 2960.75 342 3059.75 342C3226.75 342 3352.75 460 3352.75 652C3352.75 918 3182.75 1070 2951.75 1070ZM2816.75 633V1033C2850.75 1049 2888.75 1060 2939.75 1060C3110.75 1060 3266.75 891 3266.75 673C3266.75 448 3134.75 366 3016.75 366C2913.75 366 2816.75 436 2816.75 633ZM3382.46 868C3382.46 516 3888.46 631 3888.46 466C3888.46 385 3794.46 352 3713.46 352C3618.46 352 3526.46 385 3526.46 468C3526.46 506 3557.46 523 3566.46 514C3576.46 544 3543.46 572 3510.46 572C3467.46 572 3438.46 535 3438.46 492C3438.46 393 3556.46 342 3713.46 342C3826.46 342 3973.46 389 3973.46 468C3973.46 629 3470.46 483 3470.46 874C3470.46 978 3536.46 1057 3634.46 1057C3742.46 1057 3879.46 946 3879.46 655C3879.46 633 3877.46 610 3862.46 606C3862.46 600 3873.46 592 3889.46 592C3962.46 592 3971.46 668 3971.46 748C3971.46 837 3972.46 852 3972.46 958C3972.46 1042 4021.46 1060 4048.46 1060V1070H3977.46C3924.46 1070 3882.46 1021 3882.46 946V775C3846.46 947 3780.46 1090 3605.46 1090C3476.46 1090 3382.46 997 3382.46 868Z" fill="#1E1E1E"/>
<path d="M2204.23 1192.1C2204.23 1244.18 2172.82 1287.8 2110 1322.96C2082.65 1338.26 2063.93 1345.91 2053.84 1345.91C2051.24 1345.91 2049.94 1344.6 2049.94 1342C2049.94 1340.37 2054.66 1337.77 2064.1 1334.19C2100.56 1319.86 2130.34 1299.52 2153.45 1273.15C2176.57 1246.46 2188.12 1219.12 2188.12 1191.12C2188.12 1165.08 2179.17 1143.92 2161.27 1127.64C2143.36 1111.37 2119.92 1103.23 2090.95 1103.23C1997.85 1103.23 1914.52 1156.78 1840.95 1263.88C1828.26 1282.43 1789.68 1353.88 1725.23 1478.23C1655.24 1612.02 1572.89 1694.21 1478.16 1724.81C1506.48 1728.39 1528.78 1730.18 1545.05 1730.18C1604.3 1730.18 1654.59 1710.82 1695.93 1672.08C1731.74 1638.88 1764.13 1600.14 1793.1 1555.87C1796.68 1551.31 1799.29 1549.03 1800.91 1549.03C1802.22 1549.36 1802.87 1550.01 1802.87 1550.98C1802.87 1554.24 1787.57 1575.56 1756.97 1614.95C1720.84 1661.5 1687.63 1693.56 1657.36 1711.14C1627.41 1728.39 1590.63 1737.02 1547.01 1737.02C1519.99 1737.02 1490.69 1734.74 1459.12 1730.18C1435.03 1736.69 1413.06 1739.95 1393.2 1739.95C1376.27 1739.95 1367.81 1736.37 1367.81 1729.21C1367.81 1721.07 1381.15 1717 1407.85 1717C1422.82 1717 1441.54 1718.95 1464 1722.86C1506.97 1703.98 1539.68 1680.7 1562.14 1653.04C1586.23 1623.09 1622.2 1560.42 1670.05 1465.05L1677.87 1448.93H1487.93C1457.33 1505.9 1430.8 1548.05 1408.34 1575.4C1385.88 1602.74 1355.76 1629.27 1318 1654.99C1235 1711.63 1154.92 1739.95 1077.77 1739.95C1032.85 1739.95 996.227 1730.51 967.906 1711.63C939.911 1692.42 925.914 1667.52 925.914 1636.92C925.914 1620.97 930.634 1607.14 940.074 1595.42C949.84 1583.7 961.559 1577.84 975.23 1577.84C996.389 1577.84 1006.97 1588.58 1006.97 1610.07C1006.97 1620.48 1003.71 1629.43 997.203 1636.92C990.693 1644.41 982.555 1648.15 972.789 1648.15C957.49 1648.15 949.84 1640.5 949.84 1625.2C950.816 1617.07 949.84 1613 946.91 1613C941.051 1613 938.121 1621.62 938.121 1638.88C938.121 1665.57 950.654 1687.54 975.719 1704.79C1000.78 1721.72 1032.85 1730.18 1071.91 1730.18C1140.6 1730.18 1200.65 1709.84 1252.09 1669.15C1303.84 1628.13 1362.44 1554.73 1427.87 1448.93H1277.96L1281.87 1439.17H1434.21C1438.12 1432.66 1444.79 1422.24 1454.23 1407.92C1522.59 1297.24 1586.88 1219.93 1647.11 1175.98C1659.8 1166.54 1676.73 1156.45 1697.89 1145.71C1719.05 1134.64 1732.07 1129.11 1736.95 1129.11C1738.9 1129.76 1739.88 1131.06 1739.88 1133.02C1739.88 1134.97 1736.62 1137.25 1730.11 1139.85C1690.07 1156.13 1654.27 1184.12 1622.69 1223.84C1591.12 1263.55 1547.82 1335.33 1492.81 1439.17H1683.24C1744.11 1330.44 1810.19 1245.97 1881.48 1185.75C1953.1 1125.2 2022.92 1094.93 2090.95 1094.93C2124.48 1094.93 2151.66 1104.04 2172.5 1122.27C2193.65 1140.18 2204.23 1163.45 2204.23 1192.1ZM1570.93 1203.82C1570.93 1210.65 1561.33 1224.32 1542.12 1244.83C1513.48 1275.76 1486.14 1291.22 1460.09 1291.22C1441.54 1291.22 1426.08 1284.71 1413.71 1271.69C1401.34 1258.34 1395.15 1242.07 1395.15 1222.86C1395.15 1204.96 1401.83 1182.66 1415.17 1155.96C1431.77 1122.76 1440.07 1099.81 1440.07 1087.12C1440.07 1070.52 1432.26 1057.17 1416.64 1047.08C1401.01 1036.99 1380.5 1031.94 1355.11 1031.94C1282.52 1031.94 1214.33 1061.24 1150.52 1119.83C1086.72 1178.1 1054.82 1240.44 1054.82 1306.84C1054.82 1341.02 1065.24 1369.02 1086.07 1390.83C1106.9 1412.31 1133.92 1423.05 1167.12 1423.05C1231.25 1423.05 1285.29 1393.43 1329.23 1334.19C1329.89 1332.23 1330.86 1331.1 1332.16 1330.77C1334.77 1330.77 1336.07 1332.23 1336.07 1335.16C1336.07 1342 1325.65 1354.53 1304.82 1372.76C1261.85 1411.5 1215.3 1430.87 1165.17 1430.87C1130.02 1430.87 1101.37 1419.47 1079.23 1396.69C1057.1 1373.9 1046.03 1344.28 1046.03 1307.82C1046.03 1237.51 1078.58 1172.73 1143.69 1113.48C1209.12 1053.91 1280.57 1024.13 1358.04 1024.13C1426.08 1024.13 1460.09 1054.08 1460.09 1113.97C1460.09 1134.48 1453.1 1159.06 1439.1 1187.7C1425.1 1216.35 1418.1 1235.39 1418.1 1244.83C1418.1 1269.57 1431.45 1281.94 1458.14 1281.94C1474.42 1281.94 1492.97 1274.29 1513.8 1258.99C1534.64 1243.69 1550.75 1225.63 1562.14 1204.79C1563.77 1201.54 1565.4 1199.91 1567.03 1199.91C1569.63 1199.91 1570.93 1201.21 1570.93 1203.82ZM2136.36 1564.17C2136.36 1571 2112.6 1602.58 2065.07 1658.89C2026.66 1705.12 1996.39 1728.23 1974.25 1728.23C1959.28 1728.23 1947.07 1722.7 1937.63 1711.63C1928.19 1700.24 1923.47 1686.08 1923.47 1669.15C1923.47 1651.57 1928.68 1632.53 1939.1 1612.02C1906.55 1657.59 1881.64 1688.35 1864.39 1704.3C1847.14 1720.26 1830.37 1728.23 1814.1 1728.23C1796.85 1728.23 1782.36 1720.91 1770.64 1706.26C1758.92 1691.28 1753.06 1672.57 1753.06 1650.11C1753.06 1587.61 1797.17 1532.27 1885.39 1484.09C1924.12 1462.61 1955.37 1451.86 1979.14 1451.86C1999.32 1451.86 2009.41 1461.63 2009.41 1481.16C2009.41 1486.69 2008.11 1494.02 2005.5 1503.13L2030.41 1455.77C2040.17 1458.05 2048.8 1459.19 2056.29 1459.19C2065.07 1459.19 2076.47 1458.05 2090.46 1455.77L2004.04 1598.84C1974.09 1648.97 1959.12 1682.01 1959.12 1697.96C1959.12 1713.26 1965.46 1720.91 1978.16 1720.91C1991.18 1720.91 2012.01 1706.1 2040.66 1676.47C2069.31 1646.52 2098.44 1609.74 2128.06 1566.12C2130.02 1562.87 2131.81 1561.24 2133.43 1561.24C2135.39 1561.24 2136.36 1562.21 2136.36 1564.17ZM2002.09 1483.11C2002.09 1467.16 1994.76 1459.19 1980.11 1459.19C1950.17 1459.19 1910.78 1488.48 1861.95 1547.08C1813.45 1605.67 1789.2 1653.04 1789.2 1689.17C1789.2 1710.33 1798.64 1720.91 1817.52 1720.91C1839.98 1720.91 1878.88 1683.63 1934.21 1609.09C1979.46 1547.89 2002.09 1505.9 2002.09 1483.11ZM2680.8 1564.17C2680.47 1565.14 2678.84 1567.75 2675.91 1571.98L2654.92 1600.79C2593.72 1685.75 2548.47 1728.23 2519.18 1728.23C2503.88 1728.23 2491.34 1722.53 2481.58 1711.14C2471.81 1699.75 2466.93 1685.1 2466.93 1667.2C2466.93 1648.97 2473.11 1629.27 2485.48 1608.11C2487.76 1604.21 2499.64 1586.79 2521.13 1555.87C2548.47 1516.8 2562.14 1491.25 2562.14 1479.21C2562.14 1465.86 2555.47 1459.19 2542.12 1459.19C2499.16 1459.19 2425.43 1547.4 2320.93 1723.84C2314.42 1722.53 2305.47 1721.88 2294.08 1721.88C2280.73 1721.88 2269.34 1722.53 2259.9 1723.84L2329.23 1613.97C2374.48 1541.71 2397.11 1497.44 2397.11 1481.16C2397.11 1466.51 2391.08 1459.19 2379.04 1459.19C2361.14 1459.19 2331.84 1484.9 2291.15 1536.34C2250.46 1587.77 2210.09 1650.27 2170.05 1723.84C2162.57 1722.53 2152.96 1721.88 2141.25 1721.88C2128.55 1721.88 2117.48 1722.53 2108.04 1723.84L2177.87 1613.97C2226.04 1538.45 2250.13 1491.74 2250.13 1473.84C2250.13 1464.07 2246.39 1459.19 2238.9 1459.19C2222.95 1459.19 2189.91 1494.18 2139.78 1564.17C2136.53 1568.73 2133.92 1571 2131.97 1571C2130.67 1570.68 2130.02 1569.7 2130.02 1568.07C2130.02 1565.14 2144.99 1544.8 2174.94 1507.04C2204.23 1470.26 2226.86 1451.86 2242.81 1451.86C2253.23 1451.86 2262.18 1456.91 2269.66 1467C2277.15 1476.77 2280.89 1488.48 2280.89 1502.16C2280.89 1521.04 2271.29 1547.24 2252.09 1580.77C2310.68 1494.83 2354.3 1451.86 2382.95 1451.86C2396.62 1451.86 2407.85 1457.4 2416.64 1468.46C2425.43 1479.53 2429.82 1493.37 2429.82 1509.97C2429.82 1528.52 2421.19 1552.12 2403.94 1580.77C2465.79 1494.83 2512.18 1451.86 2543.1 1451.86C2557.1 1451.86 2568.82 1457.89 2578.26 1469.93C2588.02 1481.97 2592.91 1496.62 2592.91 1513.88C2592.91 1534.06 2584.93 1557.66 2568.98 1584.68C2568.65 1585 2554.66 1605.83 2526.99 1647.18C2511.04 1670.61 2503.06 1688.52 2503.06 1700.89C2503.06 1714.23 2509.74 1720.91 2523.08 1720.91C2548.47 1720.91 2590.46 1679.89 2649.06 1597.86L2664.2 1576.86L2672.98 1566.12C2674.61 1562.87 2676.24 1561.24 2677.87 1561.24C2679.82 1561.24 2680.8 1562.21 2680.8 1564.17ZM2841.93 1362.02C2841.93 1373.41 2837.05 1384.15 2827.28 1394.25C2817.84 1404.01 2807.42 1408.89 2796.03 1408.89C2781.38 1408.89 2774.06 1401.57 2774.06 1386.92C2774.06 1376.18 2779.1 1365.93 2789.2 1356.16C2799.29 1346.07 2809.87 1341.02 2820.93 1341.02C2834.93 1341.02 2841.93 1348.02 2841.93 1362.02ZM2848.77 1564.17C2848.44 1565.14 2846.81 1567.75 2843.88 1571.98L2822.89 1600.79C2761.69 1685.75 2714.98 1728.23 2682.75 1728.23C2667.45 1728.23 2654.59 1722.86 2644.18 1712.12C2634.08 1701.05 2629.04 1687.38 2629.04 1671.1C2629.04 1652.22 2640.27 1623.58 2662.73 1585.16L2738.9 1455.77C2748.99 1458.05 2756.97 1459.19 2762.83 1459.19C2771.62 1459.19 2783.99 1458.05 2799.94 1455.77L2689.1 1637.9C2673.15 1664.27 2665.17 1684.61 2665.17 1698.93C2665.17 1713.58 2672.82 1720.91 2688.12 1720.91C2717.09 1720.91 2768.04 1669.31 2840.95 1566.12C2842.58 1562.87 2844.21 1561.24 2845.84 1561.24C2847.79 1561.24 2848.77 1562.21 2848.77 1564.17ZM3293.1 1222.86C3171.03 1416.87 3094.05 1540.89 3062.14 1594.93C3029.92 1649.94 3013.8 1684.61 3013.8 1698.93C3013.8 1713.58 3020.48 1720.91 3033.82 1720.91C3063.45 1720.91 3113.74 1669.31 3184.7 1566.12C3186.66 1562.87 3188.45 1561.24 3190.07 1561.24C3192.03 1561.24 3193 1562.21 3193 1564.17C3192.68 1565.14 3191.05 1567.75 3188.12 1571.98L3167.12 1600.79C3105.6 1685.75 3060.19 1728.23 3030.89 1728.23C3015.92 1728.23 3003.71 1722.7 2994.27 1711.63C2984.83 1700.24 2980.11 1685.75 2980.11 1668.17C2980.11 1650.59 2985.97 1630.25 2997.69 1607.14C2940.73 1687.87 2898.41 1728.23 2870.74 1728.23C2853.49 1728.23 2839 1720.91 2827.28 1706.26C2815.56 1691.28 2809.7 1672.57 2809.7 1650.11C2809.7 1596.39 2843.07 1547.73 2909.8 1504.11C2962.86 1469.28 3004.53 1451.86 3034.8 1451.86C3054.98 1451.86 3065.07 1461.63 3065.07 1481.16C3065.07 1490.27 3062.31 1500.53 3056.77 1511.92L3231.09 1219.93C3241.83 1223.18 3252.41 1224.81 3262.83 1224.81C3265.43 1224.81 3275.52 1224.16 3293.1 1222.86ZM3057.75 1485.07C3057.75 1467.81 3049.77 1459.19 3033.82 1459.19C3004.53 1459.19 2965.79 1488.48 2917.61 1547.08C2869.76 1605.35 2845.84 1652.38 2845.84 1688.19C2845.84 1710 2854.79 1720.91 2872.69 1720.91C2898.73 1720.91 2943.49 1675.66 3006.97 1585.16C3040.82 1536.34 3057.75 1502.97 3057.75 1485.07Z" fill="#1E1E1E"/>
</svg>
