<svg width="2050" height="1072" viewBox="0 0 2050 1072" fill="none" xmlns="http://www.w3.org/2000/svg">
<path d="M1717.8 681V677.7C1722.73 673.567 1727.4 669.467 1731.8 665.4C1736.27 661.267 1740.23 657.167 1743.7 653.1C1747.17 649.033 1749.9 645 1751.9 641C1753.9 636.933 1754.9 632.967 1754.9 629.1C1754.9 626.3 1754.4 623.767 1753.4 621.5C1752.4 619.167 1750.8 617.3 1748.6 615.9C1746.4 614.5 1743.33 613.8 1739.4 613.8C1735.67 613.8 1732.57 614.633 1730.1 616.3C1727.7 617.9 1725.9 620 1724.7 622.6C1723.57 625.133 1723.03 627.9 1723.1 630.9H1718.6C1718.53 626.7 1719.37 623.033 1721.1 619.9C1722.9 616.7 1725.37 614.233 1728.5 612.5C1731.63 610.7 1735.27 609.8 1739.4 609.8C1743 609.8 1746.3 610.433 1749.3 611.7C1752.3 612.967 1754.73 615 1756.6 617.8C1758.47 620.6 1759.4 624.333 1759.4 629C1759.4 632.667 1758.63 636.333 1757.1 640C1755.63 643.6 1753.63 647.133 1751.1 650.6C1748.57 654.067 1745.77 657.4 1742.7 660.6C1739.63 663.8 1736.53 666.8 1733.4 669.6C1730.33 672.333 1727.43 674.833 1724.7 677.1H1762.4V681H1717.8ZM1792.38 682.2C1786.38 682.2 1781.24 680.7 1776.98 677.7C1772.78 674.633 1769.54 670.4 1767.28 665C1765.01 659.533 1763.88 653.2 1763.88 646C1763.88 638.733 1765.01 632.4 1767.28 627C1769.54 621.6 1772.78 617.4 1776.98 614.4C1781.24 611.333 1786.38 609.8 1792.38 609.8C1798.38 609.8 1803.48 611.333 1807.68 614.4C1811.94 617.4 1815.18 621.633 1817.38 627.1C1819.64 632.5 1820.78 638.8 1820.78 646C1820.78 653.2 1819.64 659.533 1817.38 665C1815.18 670.4 1811.94 674.633 1807.68 677.7C1803.48 680.7 1798.38 682.2 1792.38 682.2ZM1792.38 678.1C1796.98 678.1 1801.08 676.833 1804.68 674.3C1808.28 671.7 1811.08 668 1813.08 663.2C1815.08 658.4 1816.08 652.667 1816.08 646C1816.08 639.333 1815.08 633.6 1813.08 628.8C1811.08 624 1808.28 620.333 1804.68 617.8C1801.08 615.2 1796.98 613.9 1792.38 613.9C1787.78 613.9 1783.68 615.2 1780.08 617.8C1776.48 620.4 1773.64 624.067 1771.58 628.8C1769.58 633.533 1768.58 639.267 1768.58 646C1768.58 652.667 1769.61 658.4 1771.68 663.2C1773.74 668 1776.54 671.7 1780.08 674.3C1783.68 676.833 1787.78 678.1 1792.38 678.1ZM1851.98 682.2C1845.98 682.2 1840.85 680.7 1836.58 677.7C1832.38 674.633 1829.15 670.4 1826.88 665C1824.61 659.533 1823.48 653.2 1823.48 646C1823.48 638.733 1824.61 632.4 1826.88 627C1829.15 621.6 1832.38 617.4 1836.58 614.4C1840.85 611.333 1845.98 609.8 1851.98 609.8C1857.98 609.8 1863.08 611.333 1867.28 614.4C1871.55 617.4 1874.78 621.633 1876.98 627.1C1879.25 632.5 1880.38 638.8 1880.38 646C1880.38 653.2 1879.25 659.533 1876.98 665C1874.78 670.4 1871.55 674.633 1867.28 677.7C1863.08 680.7 1857.98 682.2 1851.98 682.2ZM1851.98 678.1C1856.58 678.1 1860.68 676.833 1864.28 674.3C1867.88 671.7 1870.68 668 1872.68 663.2C1874.68 658.4 1875.68 652.667 1875.68 646C1875.68 639.333 1874.68 633.6 1872.68 628.8C1870.68 624 1867.88 620.333 1864.28 617.8C1860.68 615.2 1856.58 613.9 1851.98 613.9C1847.38 613.9 1843.28 615.2 1839.68 617.8C1836.08 620.4 1833.25 624.067 1831.18 628.8C1829.18 633.533 1828.18 639.267 1828.18 646C1828.18 652.667 1829.21 658.4 1831.28 663.2C1833.35 668 1836.15 671.7 1839.68 674.3C1843.28 676.833 1847.38 678.1 1851.98 678.1ZM1883.62 681V677.7C1888.55 673.567 1893.22 669.467 1897.62 665.4C1902.08 661.267 1906.05 657.167 1909.52 653.1C1912.98 649.033 1915.72 645 1917.72 641C1919.72 636.933 1920.72 632.967 1920.72 629.1C1920.72 626.3 1920.22 623.767 1919.22 621.5C1918.22 619.167 1916.62 617.3 1914.42 615.9C1912.22 614.5 1909.15 613.8 1905.22 613.8C1901.48 613.8 1898.38 614.633 1895.92 616.3C1893.52 617.9 1891.72 620 1890.52 622.6C1889.38 625.133 1888.85 627.9 1888.92 630.9H1884.42C1884.35 626.7 1885.18 623.033 1886.92 619.9C1888.72 616.7 1891.18 614.233 1894.32 612.5C1897.45 610.7 1901.08 609.8 1905.22 609.8C1908.82 609.8 1912.12 610.433 1915.12 611.7C1918.12 612.967 1920.55 615 1922.42 617.8C1924.28 620.6 1925.22 624.333 1925.22 629C1925.22 632.667 1924.45 636.333 1922.92 640C1921.45 643.6 1919.45 647.133 1916.92 650.6C1914.38 654.067 1911.58 657.4 1908.52 660.6C1905.45 663.8 1902.35 666.8 1899.22 669.6C1896.15 672.333 1893.25 674.833 1890.52 677.1H1928.22V681H1883.62Z" fill="#7D7B7C" fill-opacity="0.46"/>
<path d="M202.14 681.56C195.987 681.56 190.657 680.13 186.15 677.27C181.73 674.41 178.307 670.38 175.88 665.18C173.453 659.98 172.24 653.87 172.24 646.85C172.24 639.743 173.497 633.677 176.01 628.65C178.61 623.623 182.163 619.767 186.67 617.08C191.263 614.307 196.507 612.92 202.4 612.92C208.727 612.92 214.013 614.35 218.26 617.21C222.507 619.983 225.713 623.667 227.88 628.26C230.047 632.853 231.13 637.88 231.13 643.34C231.13 644.207 231.13 645.03 231.13 645.81C231.13 646.59 231.087 647.5 231 648.54H176.4V643.47H225.41C225.323 635.063 223.113 628.737 218.78 624.49C214.447 620.243 208.9 618.12 202.14 618.12C197.98 618.12 194.08 619.073 190.44 620.98C186.8 622.887 183.81 625.833 181.47 629.82C179.217 633.807 178.09 638.877 178.09 645.03V647.37C178.09 653.957 179.217 659.417 181.47 663.75C183.723 667.997 186.67 671.16 190.31 673.24C193.95 675.32 197.893 676.36 202.14 676.36C207.6 676.36 212.107 675.103 215.66 672.59C219.213 669.99 221.813 666.35 223.46 661.67H229.31C228.183 665.483 226.407 668.907 223.98 671.94C221.64 674.973 218.65 677.357 215.01 679.09C211.37 680.737 207.08 681.56 202.14 681.56ZM259.466 681.56C254.699 681.56 250.409 680.78 246.596 679.22C242.783 677.573 239.706 675.147 237.366 671.94C235.113 668.733 233.683 664.747 233.076 659.98H239.316C239.663 663.447 240.746 666.393 242.566 668.82C244.473 671.247 246.899 673.11 249.846 674.41C252.793 675.623 256.043 676.23 259.596 676.23C263.149 676.23 266.139 675.667 268.566 674.54C271.079 673.413 272.986 671.853 274.286 669.86C275.673 667.78 276.366 665.483 276.366 662.97C276.366 659.763 275.673 657.293 274.286 655.56C272.986 653.74 270.993 652.353 268.306 651.4C265.619 650.447 262.239 649.58 258.166 648.8C254.873 648.193 251.883 647.413 249.196 646.46C246.596 645.507 244.343 644.337 242.436 642.95C240.529 641.563 239.056 639.873 238.016 637.88C237.063 635.8 236.586 633.46 236.586 630.86C236.586 627.307 237.453 624.187 239.186 621.5C241.006 618.813 243.519 616.733 246.726 615.26C249.933 613.7 253.746 612.92 258.166 612.92C264.406 612.92 269.563 614.567 273.636 617.86C277.796 621.153 280.179 626.007 280.786 632.42H274.806C274.546 628.173 272.943 624.75 269.996 622.15C267.136 619.55 263.149 618.25 258.036 618.25C253.096 618.25 249.283 619.377 246.596 621.63C243.996 623.797 242.696 626.7 242.696 630.34C242.696 632.42 243.216 634.283 244.256 635.93C245.383 637.577 247.159 639.05 249.586 640.35C252.013 641.563 255.263 642.603 259.336 643.47C263.583 644.25 267.439 645.247 270.906 646.46C274.459 647.673 277.276 649.493 279.356 651.92C281.436 654.347 282.476 657.813 282.476 662.32C282.476 666.047 281.523 669.383 279.616 672.33C277.796 675.19 275.153 677.443 271.686 679.09C268.306 680.737 264.233 681.56 259.466 681.56ZM308.514 680C305.047 680 302.1 679.48 299.674 678.44C297.334 677.4 295.514 675.623 294.214 673.11C293 670.51 292.394 667.043 292.394 662.71V619.55H280.954V614.48H292.394L293.304 600.18H298.244V614.48H318.784V619.55H298.244V662.58C298.244 667.173 299.154 670.38 300.974 672.2C302.794 674.02 305.87 674.93 310.204 674.93H317.484V680H308.514Z" fill="#7D7B7C" fill-opacity="0.46"/>
<path d="M30 434C30 258 283 315.5 283 233C283 192.5 236 176 195.5 176C148 176 102 192.5 102 234C102 253 117.5 261.5 122 257C127 272 110.5 286 94 286C72.5 286 58 267.5 58 246C58 196.5 117 171 195.5 171C252 171 325.5 194.5 325.5 234C325.5 314.5 74 241.5 74 437C74 489 107 528.5 156 528.5C210 528.5 278.5 473 278.5 327.5C278.5 316.5 277.5 305 270 303C270 300 275.5 296 283.5 296C320 296 324.5 334 324.5 374C324.5 418.5 325 426 325 479C325 521 349.5 530 363 530V535H327.5C301 535 280 510.5 280 473V387.5C262 473.5 229 545 141.5 545C77 545 30 498.5 30 434ZM478.047 535H343.047V530C386.047 530 389.047 494.5 389.047 396V320C389.047 221.5 386.047 186 343.047 186V181H401.047C458.547 181 523.047 171 578.547 171C623.047 171 656.047 193.5 656.047 232C656.047 258.5 641.547 280.5 613.047 280.5C599.047 280.5 585.547 271.5 585.547 257.5C599.547 257 612.547 240.5 612.547 220C612.547 197 595.047 178 559.047 178C528.047 178 460.547 183.5 432.047 192.5V396C432.047 494.5 435.047 530 478.047 530V535ZM822.438 545C714.938 545 650.938 461 650.938 358C650.938 255 714.938 171 822.438 171C929.938 171 975.938 234.5 975.438 285C974.938 341.5 942.438 375.5 884.937 375.5C804.438 375.5 779.938 331 730.938 331C718.938 331 707.938 339.5 706.438 343.5L704.438 343C704.438 322.5 722.438 303 756.938 303C809.438 303 848.438 369.5 888.438 369.5C962.438 369.5 964.438 177 821.438 177C719.938 177 692.938 286 693.938 356.5C694.938 449.5 748.438 528 840.438 528C879.938 528 945.938 506.5 970.438 442L977.438 445C951.438 504.5 896.938 545 822.438 545ZM1164.16 545C1056.66 545 992.656 461 992.656 358C992.656 255 1056.66 171 1164.16 171C1271.66 171 1317.66 234.5 1317.16 285C1316.66 341.5 1284.16 375.5 1226.66 375.5C1146.16 375.5 1121.66 331 1072.66 331C1060.66 331 1049.66 339.5 1048.16 343.5L1046.16 343C1046.16 322.5 1064.16 303 1098.66 303C1151.16 303 1190.16 369.5 1230.16 369.5C1304.16 369.5 1306.16 177 1163.16 177C1061.66 177 1034.66 286 1035.66 356.5C1036.66 449.5 1090.16 528 1182.16 528C1221.66 528 1287.66 506.5 1312.16 442L1319.16 445C1293.16 504.5 1238.66 545 1164.16 545ZM1475.88 535H1319.38V530C1362.38 530 1365.38 494.5 1365.38 396V174C1365.38 75.5 1362.38 40 1319.38 40V35H1408.38V239.5C1438.38 194.5 1480.38 171 1529.88 171C1613.38 171 1676.38 230 1676.38 326C1676.38 459 1591.38 535 1475.88 535ZM1408.38 316.5V516.5C1425.38 524.5 1444.38 530 1469.88 530C1555.38 530 1633.38 445.5 1633.38 336.5C1633.38 224 1567.38 183 1508.38 183C1456.88 183 1408.38 218 1408.38 316.5ZM1691.23 434C1691.23 258 1944.23 315.5 1944.23 233C1944.23 192.5 1897.23 176 1856.73 176C1809.23 176 1763.23 192.5 1763.23 234C1763.23 253 1778.73 261.5 1783.23 257C1788.23 272 1771.73 286 1755.23 286C1733.73 286 1719.23 267.5 1719.23 246C1719.23 196.5 1778.23 171 1856.73 171C1913.23 171 1986.73 194.5 1986.73 234C1986.73 314.5 1735.23 241.5 1735.23 437C1735.23 489 1768.23 528.5 1817.23 528.5C1871.23 528.5 1939.73 473 1939.73 327.5C1939.73 316.5 1938.73 305 1931.23 303C1931.23 300 1936.73 296 1944.73 296C1981.23 296 1985.73 334 1985.73 374C1985.73 418.5 1986.23 426 1986.23 479C1986.23 521 2010.73 530 2024.23 530V535H1988.73C1962.23 535 1941.23 510.5 1941.23 473V387.5C1923.23 473.5 1890.23 545 1802.73 545C1738.23 545 1691.23 498.5 1691.23 434Z" fill="#1E1E1E"/>
<path d="M1064.62 645.549C1064.62 671.59 1048.91 693.4 1017.5 710.979C1003.83 718.628 994.467 722.453 989.422 722.453C988.12 722.453 987.469 721.802 987.469 720.5C987.469 719.686 989.829 718.384 994.549 716.594C1012.78 709.432 1027.67 699.26 1039.23 686.076C1050.78 672.73 1056.56 659.058 1056.56 645.061C1056.56 632.04 1052.08 621.46 1043.13 613.322C1034.18 605.184 1022.46 601.115 1007.98 601.115C961.427 601.115 919.76 627.889 882.977 681.438C876.629 690.715 857.342 726.441 825.115 788.615C790.122 855.51 748.943 896.607 701.58 911.906C715.74 913.697 726.889 914.592 735.027 914.592C764.65 914.592 789.796 904.908 810.467 885.539C828.37 868.938 844.565 849.569 859.051 827.434C860.841 825.155 862.143 824.016 862.957 824.016C863.608 824.178 863.934 824.504 863.934 824.992C863.934 826.62 856.284 837.281 840.984 856.975C822.918 880.249 806.316 896.281 791.18 905.07C776.206 913.697 757.814 918.01 736.004 918.01C722.495 918.01 707.846 916.87 692.059 914.592C680.014 917.847 669.028 919.475 659.1 919.475C650.636 919.475 646.404 917.684 646.404 914.104C646.404 910.035 653.077 908 666.424 908C673.911 908 683.27 908.977 694.5 910.93C715.984 901.49 732.342 889.852 743.572 876.018C755.617 861.044 773.602 829.712 797.527 782.023L801.434 773.967H706.463C691.163 802.45 677.898 823.527 666.668 837.199C655.438 850.871 640.382 864.136 621.502 876.994C579.998 905.314 539.959 919.475 501.385 919.475C478.924 919.475 460.613 914.755 446.453 905.314C432.456 895.712 425.457 883.26 425.457 867.961C425.457 859.986 427.817 853.068 432.537 847.209C437.42 841.35 443.279 838.42 450.115 838.42C460.695 838.42 465.984 843.791 465.984 854.533C465.984 859.742 464.357 864.217 461.102 867.961C457.846 871.704 453.777 873.576 448.895 873.576C441.245 873.576 437.42 869.751 437.42 862.102C437.908 858.033 437.42 855.998 435.955 855.998C433.025 855.998 431.561 860.311 431.561 868.938C431.561 882.284 437.827 893.27 450.359 901.896C462.892 910.36 478.924 914.592 498.455 914.592C532.798 914.592 562.827 904.419 588.543 884.074C614.422 863.566 643.719 826.864 676.434 773.967H601.482L603.436 769.084H679.607C681.561 765.829 684.897 760.62 689.617 753.459C723.797 698.12 755.942 659.465 786.053 637.492C792.4 632.772 800.864 627.727 811.443 622.355C822.023 616.822 828.533 614.055 830.975 614.055C831.951 614.38 832.439 615.031 832.439 616.008C832.439 616.984 830.812 618.124 827.557 619.426C807.537 627.564 789.633 641.561 773.846 661.418C758.058 681.275 736.411 717.163 708.904 769.084H804.119C834.555 714.722 867.596 672.486 903.24 642.375C939.048 612.102 973.96 596.965 1007.98 596.965C1024.74 596.965 1038.33 601.522 1048.75 610.637C1059.33 619.589 1064.62 631.226 1064.62 645.549ZM747.967 651.408C747.967 654.826 743.165 661.662 733.562 671.916C719.24 687.378 705.568 695.109 692.547 695.109C683.27 695.109 675.538 691.854 669.354 685.344C663.169 678.671 660.076 670.533 660.076 660.93C660.076 651.978 663.413 640.829 670.086 627.482C678.387 610.881 682.537 599.406 682.537 593.059C682.537 584.758 678.631 578.085 670.818 573.039C663.006 567.993 652.752 565.471 640.057 565.471C603.761 565.471 569.663 580.119 537.762 609.416C505.861 638.55 489.91 669.719 489.91 702.922C489.91 720.012 495.118 734.009 505.535 744.914C515.952 755.656 529.461 761.027 546.062 761.027C578.126 761.027 605.145 746.216 627.117 716.594C627.443 715.617 627.931 715.048 628.582 714.885C629.884 714.885 630.535 715.617 630.535 717.082C630.535 720.5 625.327 726.766 614.91 735.881C593.426 755.249 570.151 764.934 545.086 764.934C527.508 764.934 513.185 759.237 502.117 747.844C491.049 736.451 485.516 721.639 485.516 703.41C485.516 668.254 501.792 635.865 534.344 606.242C567.059 576.457 602.785 561.564 641.521 561.564C675.538 561.564 692.547 576.538 692.547 606.486C692.547 616.74 689.048 629.029 682.049 643.352C675.05 657.674 671.551 667.196 671.551 671.916C671.551 684.286 678.224 690.471 691.57 690.471C699.708 690.471 708.986 686.646 719.402 678.996C729.819 671.346 737.876 662.313 743.572 651.896C744.386 650.269 745.2 649.455 746.014 649.455C747.316 649.455 747.967 650.106 747.967 651.408ZM1030.68 831.584C1030.68 835.002 1018.8 850.79 995.037 878.947C975.831 902.059 960.695 913.615 949.627 913.615C942.14 913.615 936.036 910.848 931.316 905.314C926.596 899.618 924.236 892.538 924.236 884.074C924.236 875.285 926.84 865.764 932.049 855.51C915.773 878.296 903.322 893.677 894.695 901.652C886.069 909.628 877.687 913.615 869.549 913.615C860.923 913.615 853.68 909.953 847.82 902.629C841.961 895.142 839.031 885.783 839.031 874.553C839.031 843.303 861.085 815.633 905.193 791.545C924.562 780.803 940.187 775.432 952.068 775.432C962.16 775.432 967.205 780.314 967.205 790.08C967.205 792.847 966.554 796.509 965.252 801.066L977.703 777.385C982.586 778.524 986.899 779.094 990.643 779.094C995.037 779.094 1000.73 778.524 1007.73 777.385L964.52 848.918C949.546 873.983 942.059 890.503 942.059 898.479C942.059 906.128 945.232 909.953 951.58 909.953C958.09 909.953 968.507 902.548 982.83 887.736C997.153 872.762 1011.72 854.37 1026.53 832.561C1027.51 830.933 1028.4 830.119 1029.22 830.119C1030.19 830.119 1030.68 830.607 1030.68 831.584ZM963.543 791.057C963.543 783.081 959.881 779.094 952.557 779.094C937.583 779.094 917.889 793.742 893.475 823.039C869.223 852.336 857.098 876.018 857.098 894.084C857.098 904.663 861.818 909.953 871.258 909.953C882.488 909.953 901.938 891.317 929.607 854.045C952.231 823.446 963.543 802.45 963.543 791.057ZM1302.9 831.584C1302.74 832.072 1301.92 833.374 1300.46 835.49L1289.96 849.895C1259.36 892.375 1236.74 913.615 1222.09 913.615C1214.44 913.615 1208.17 910.767 1203.29 905.07C1198.41 899.374 1195.96 892.049 1195.96 883.098C1195.96 873.983 1199.06 864.136 1205.24 853.557C1206.38 851.604 1212.32 842.896 1223.06 827.434C1236.74 807.902 1243.57 795.126 1243.57 789.104C1243.57 782.43 1240.24 779.094 1233.56 779.094C1212.08 779.094 1175.21 823.202 1122.97 911.418C1119.71 910.767 1115.24 910.441 1109.54 910.441C1102.87 910.441 1097.17 910.767 1092.45 911.418L1127.12 856.486C1149.74 820.354 1161.05 798.218 1161.05 790.08C1161.05 782.756 1158.04 779.094 1152.02 779.094C1143.07 779.094 1128.42 791.952 1108.07 817.668C1087.73 843.384 1067.55 874.634 1047.53 911.418C1043.78 910.767 1038.98 910.441 1033.12 910.441C1026.78 910.441 1021.24 910.767 1016.52 911.418L1051.43 856.486C1075.52 818.726 1087.57 795.37 1087.57 786.418C1087.57 781.535 1085.69 779.094 1081.95 779.094C1073.98 779.094 1057.46 796.59 1032.39 831.584C1030.76 833.863 1029.46 835.002 1028.48 835.002C1027.83 834.839 1027.51 834.351 1027.51 833.537C1027.51 832.072 1034.99 821.9 1049.97 803.02C1064.62 784.628 1075.93 775.432 1083.9 775.432C1089.11 775.432 1093.59 777.954 1097.33 783C1101.08 787.883 1102.95 793.742 1102.95 800.578C1102.95 810.018 1098.15 823.12 1088.54 839.885C1117.84 796.916 1139.65 775.432 1153.97 775.432C1160.81 775.432 1166.42 778.199 1170.82 783.732C1175.21 789.266 1177.41 796.184 1177.41 804.484C1177.41 813.762 1173.1 825.562 1164.47 839.885C1195.4 796.916 1218.59 775.432 1234.05 775.432C1241.05 775.432 1246.91 778.443 1251.63 784.465C1256.51 790.487 1258.95 797.811 1258.95 806.438C1258.95 816.529 1254.97 828.329 1246.99 841.838C1246.83 842.001 1239.83 852.417 1225.99 873.088C1218.02 884.807 1214.03 893.758 1214.03 899.943C1214.03 906.617 1217.37 909.953 1224.04 909.953C1236.74 909.953 1257.73 889.445 1287.03 848.43L1294.6 837.932L1298.99 832.561C1299.81 830.933 1300.62 830.119 1301.43 830.119C1302.41 830.119 1302.9 830.607 1302.9 831.584ZM1383.46 730.51C1383.46 736.206 1381.02 741.577 1376.14 746.623C1371.42 751.506 1366.21 753.947 1360.52 753.947C1353.19 753.947 1349.53 750.285 1349.53 742.961C1349.53 737.59 1352.05 732.463 1357.1 727.58C1362.14 722.535 1367.43 720.012 1372.97 720.012C1379.97 720.012 1383.46 723.511 1383.46 730.51ZM1386.88 831.584C1386.72 832.072 1385.91 833.374 1384.44 835.49L1373.94 849.895C1343.34 892.375 1319.99 913.615 1303.88 913.615C1296.23 913.615 1289.8 910.93 1284.59 905.559C1279.54 900.025 1277.02 893.189 1277.02 885.051C1277.02 875.611 1282.63 861.288 1293.87 842.082L1331.95 777.385C1337 778.524 1340.98 779.094 1343.91 779.094C1348.31 779.094 1354.49 778.524 1362.47 777.385L1307.05 868.449C1299.07 881.633 1295.09 891.805 1295.09 898.967C1295.09 906.291 1298.91 909.953 1306.56 909.953C1321.05 909.953 1346.52 884.156 1382.98 832.561C1383.79 830.933 1384.6 830.119 1385.42 830.119C1386.39 830.119 1386.88 830.607 1386.88 831.584ZM1609.05 660.93C1548.02 757.935 1509.52 819.947 1493.57 846.965C1477.46 874.471 1469.4 891.805 1469.4 898.967C1469.4 906.291 1472.74 909.953 1479.41 909.953C1494.22 909.953 1519.37 884.156 1554.85 832.561C1555.83 830.933 1556.72 830.119 1557.54 830.119C1558.51 830.119 1559 830.607 1559 831.584C1558.84 832.072 1558.03 833.374 1556.56 835.49L1546.06 849.895C1515.3 892.375 1492.6 913.615 1477.95 913.615C1470.46 913.615 1464.36 910.848 1459.64 905.314C1454.92 899.618 1452.56 892.375 1452.56 883.586C1452.56 874.797 1455.49 864.624 1461.35 853.068C1432.86 893.433 1411.7 913.615 1397.87 913.615C1389.24 913.615 1382 909.953 1376.14 902.629C1370.28 895.142 1367.35 885.783 1367.35 874.553C1367.35 847.697 1384.03 823.365 1417.4 801.555C1443.93 784.139 1464.76 775.432 1479.9 775.432C1489.99 775.432 1495.04 780.314 1495.04 790.08C1495.04 794.637 1493.65 799.764 1490.89 805.461L1578.04 659.465C1583.42 661.092 1588.71 661.906 1593.91 661.906C1595.22 661.906 1600.26 661.581 1609.05 660.93ZM1491.38 792.033C1491.38 783.407 1487.39 779.094 1479.41 779.094C1464.76 779.094 1445.4 793.742 1421.31 823.039C1397.38 852.173 1385.42 875.692 1385.42 893.596C1385.42 904.501 1389.89 909.953 1398.85 909.953C1411.87 909.953 1434.25 887.329 1465.98 842.082C1482.91 817.668 1491.38 800.985 1491.38 792.033Z" fill="#1E1E1E"/>
</svg>
