<svg width="3917" height="1864" viewBox="0 0 3917 1864" fill="none" xmlns="http://www.w3.org/2000/svg">
<path d="M3231.9 308.1V298.8H3233.7V375H3231.9V341.4C3231.9 351.3 3216.6 376.2 3188.4 375C3168.6 374.1 3158.7 362.4 3138 360.6C3115.5 358.5 3110.4 371.7 3110.4 375H3108.6C3106.2 369.6 3104.7 362.1 3104.7 353.7C3104.7 296.1 3187.2 276.6 3188.7 214.2C3188.7 190.8 3177.3 171.3 3162 167.1C3155.7 167.4 3149.7 168.6 3144 170.4C3139.5 172.5 3138.3 179.1 3146.1 183C3156.9 188.1 3164.7 199.2 3164.7 212.1C3164.7 229.8 3150.3 244.2 3132.6 244.2C3114.9 244.2 3100.5 229.8 3100.5 212.1C3100.5 181.2 3141 165 3168.6 165C3208.8 165 3241.2 191.1 3241.2 223.2C3241.2 282 3148.5 284.7 3117.9 320.1C3125.4 313.5 3136.2 308.4 3149.4 308.1C3173.4 307.5 3194.4 322.2 3213 322.2C3226.5 322.2 3231.9 312.3 3231.9 308.1ZM3338.65 165C3390.85 165 3433.15 212.1 3433.15 270C3433.15 327.9 3390.85 375 3338.65 375C3286.45 375 3244.15 327.9 3244.15 270C3244.15 212.1 3286.45 165 3338.65 165ZM3338.65 372.6C3359.35 372.6 3370.75 338.1 3370.75 270C3370.75 201.9 3359.35 167.4 3338.65 167.4C3317.65 167.4 3306.55 201.9 3306.55 270C3306.55 338.1 3317.65 372.6 3338.65 372.6ZM3533.57 165C3585.77 165 3628.07 212.1 3628.07 270C3628.07 327.9 3585.77 375 3533.57 375C3481.37 375 3439.07 327.9 3439.07 270C3439.07 212.1 3481.37 165 3533.57 165ZM3533.57 372.6C3554.27 372.6 3565.67 338.1 3565.67 270C3565.67 201.9 3554.27 167.4 3533.57 167.4C3512.57 167.4 3501.47 201.9 3501.47 270C3501.47 338.1 3512.57 372.6 3533.57 372.6ZM3759.53 308.1V298.8H3761.33V375H3759.53V341.4C3759.53 351.3 3744.23 376.2 3716.03 375C3696.23 374.1 3686.33 362.4 3665.63 360.6C3643.13 358.5 3638.03 371.7 3638.03 375H3636.23C3633.83 369.6 3632.33 362.1 3632.33 353.7C3632.33 296.1 3714.83 276.6 3716.33 214.2C3716.33 190.8 3704.93 171.3 3689.62 167.1C3683.33 167.4 3677.33 168.6 3671.63 170.4C3667.13 172.5 3665.93 179.1 3673.73 183C3684.53 188.1 3692.33 199.2 3692.33 212.1C3692.33 229.8 3677.93 244.2 3660.23 244.2C3642.53 244.2 3628.13 229.8 3628.13 212.1C3628.13 181.2 3668.63 165 3696.23 165C3736.43 165 3768.82 191.1 3768.82 223.2C3768.82 282 3676.13 284.7 3645.53 320.1C3653.03 313.5 3663.83 308.4 3677.03 308.1C3701.03 307.5 3722.03 322.2 3740.63 322.2C3754.13 322.2 3759.53 312.3 3759.53 308.1Z" fill="#7D7B7C"/>
<path d="M724.8 1325.6C748.2 1325.6 769.8 1313.6 786.6 1293.8L789.6 1295.6C765.6 1338.8 722.4 1367 673.8 1367C598.2 1367 537 1299.2 537 1215.2C537 1131.2 598.2 1063.4 673.8 1063.4C739.2 1063.4 787.8 1114.4 801 1182.2H627C627 1261.4 670.8 1325.6 724.8 1325.6ZM673.8 1067C632.4 1067 627.6 1158.2 627 1178.6H719.4C715.8 1104.2 700.2 1067 673.8 1067ZM1027.06 1283C1030.66 1330.4 976.059 1367 913.659 1367C852.459 1367 800.859 1333.4 800.859 1289C800.859 1263.8 821.859 1242.8 847.059 1242.8C872.859 1242.8 893.859 1263.8 893.859 1289C893.859 1321.4 865.659 1326.2 865.659 1341.8C865.659 1350.8 875.859 1359.8 887.859 1361.6C895.659 1362.8 901.659 1363.4 913.659 1363.4C935.259 1363.4 952.659 1346 952.659 1324.4C952.659 1264.4 800.859 1217.6 800.859 1133.6C800.859 1085.6 857.859 1063.4 902.259 1063.4C945.459 1063.4 963.459 1080.2 989.259 1078.4C995.859 1077.8 1001.26 1074.8 1004.26 1071.8H1007.26V1169C1007.26 1169 1005.46 1169 1004.26 1169C997.059 1133 979.659 1076 921.459 1068.2C900.459 1065.2 883.659 1076.6 881.859 1101.8C877.059 1165.4 1019.86 1200.8 1027.06 1283ZM1165.88 1342.4C1172.48 1342.4 1178.48 1340.6 1183.88 1337V1341.2C1169.48 1352 1144.28 1367 1110.68 1367C1073.48 1367 1043.47 1337 1043.47 1299.8V1073H1018.88V1069.4C1063.88 1069.4 1104.08 1048.4 1129.88 1015.4H1133.48V1069.4H1172.48V1073H1133.48V1310C1133.48 1328 1147.88 1342.4 1165.88 1342.4Z" fill="#7D7B7C"/>
<path d="M446 680C446 704 464 725 487 729V735L315 760C315 760 314 760 313 760C303 760 295 752 295 742V717C271 735 230 760 174 760C111 760 55 724 40 668C24 611 56 552 111 518C197 464 431 430 431 353C431 326 404 297 372 281C333 262 285 255 236 263C200 268 179 280 179 301C179 338 222 351 222 397C222 440 187 474 144 474C101 474 67 440 67 397C67 319 164 267 235 257C287 249 337 256 375 276C413 295 446 329 446 378V680ZM295 710V458V453C254 472 193 504 187 588C184 636 196 673 217 696C239 720 273 726 295 710ZM785.719 244C828.719 246 863.719 279 863.719 321C863.719 364 828.719 399 785.719 399C743.719 399 708.719 364 708.719 321C708.719 308 711.719 303 711.719 295C711.719 285 705.719 280 695.719 280C686.719 280 673.719 284 657.719 292V700C657.719 724 675.719 745 698.719 749V755H466.719V749C489.719 745 507.719 724 507.719 700V344C507.719 319 489.719 299 466.719 295V289L637.719 264C638.719 264 639.719 264 640.719 264C650.719 264 657.719 272 657.719 281V286C693.719 267 746.719 242 785.719 244ZM1126.95 691C1165.95 691 1201.95 671 1229.95 638L1234.95 641C1194.95 713 1122.95 760 1041.95 760C915.945 760 813.945 647 813.945 507C813.945 367 915.945 254 1041.95 254C1150.95 254 1231.95 339 1253.95 452H963.945C963.945 584 1036.95 691 1126.95 691ZM1041.95 260C972.945 260 964.945 412 963.945 446H1117.95C1111.95 322 1085.95 260 1041.95 260ZM1566.71 691C1605.71 691 1641.71 671 1669.71 638L1674.71 641C1634.71 713 1562.71 760 1481.71 760C1355.71 760 1253.71 647 1253.71 507C1253.71 367 1355.71 254 1481.71 254C1590.71 254 1671.71 339 1693.71 452H1403.71C1403.71 584 1476.71 691 1566.71 691ZM1481.71 260C1412.71 260 1404.71 412 1403.71 446H1557.71C1551.71 322 1525.71 260 1481.71 260ZM2165.71 487C2179.71 626 2102.71 748 1992.71 759C1946.71 764 1902.71 748 1864.71 718V734C1864.71 746 1855.71 755 1843.71 755H1673.71V749C1696.71 745 1714.71 724 1714.71 700V135C1714.71 111 1696.71 90 1673.71 86V80L1844.71 55C1845.71 55 1846.71 55 1847.71 55C1857.71 55 1864.71 63 1864.71 73V275C1885.71 264 1909.71 257 1936.71 254C2046.71 243 2151.71 347 2165.71 487ZM1898.71 718C1963.71 718 2017.71 619 2017.71 496C2017.71 373 1963.71 274 1898.71 274C1886.71 274 1875.71 277 1864.71 282V710C1875.71 715 1886.71 718 1898.71 718ZM2578.42 680C2578.42 704 2596.42 725 2619.42 729V735L2447.42 760C2447.42 760 2446.42 760 2445.42 760C2435.42 760 2427.42 752 2427.42 742V717C2403.42 735 2362.42 760 2306.42 760C2243.42 760 2187.42 724 2172.42 668C2156.42 611 2188.42 552 2243.42 518C2329.42 464 2563.42 430 2563.42 353C2563.42 326 2536.42 297 2504.42 281C2465.42 262 2417.42 255 2368.42 263C2332.42 268 2311.42 280 2311.42 301C2311.42 338 2354.42 351 2354.42 397C2354.42 440 2319.42 474 2276.42 474C2233.42 474 2199.42 440 2199.42 397C2199.42 319 2296.42 267 2367.42 257C2419.42 249 2469.42 256 2507.42 276C2545.42 295 2578.42 329 2578.42 378V680ZM2427.42 710V458V453C2386.42 472 2325.42 504 2319.42 588C2316.42 636 2328.42 673 2349.42 696C2371.42 720 2405.42 726 2427.42 710Z" fill="#1E1E1E"/>
<path d="M1913 1559C1913 1583 1931 1610 1954 1614H1892H1722C1745 1610 1763 1583 1763 1559V1531V1308V1118V1099V1063V1005V994C1763 970 1745 943 1722 939L1893 914C1894 914 1895 914 1896 914C1906 914 1913 922 1913 932V1059V1144V1151V1531V1559ZM2176 1559C2176 1583 2194 1610 2217 1614H2155H1985C2008 1610 2026 1583 2026 1559V1531V1264C2026 1213 2078 1200 2078 1163C2078 1141 2050 1121 2010 1121C1968 1121 1931 1136 1918 1142C2011 1097 2176 1084 2176 1250V1531V1559ZM2265.39 1333C2222.39 1333 2188.39 1299 2188.39 1256C2188.39 1189 2277.39 1125 2356.39 1116C2320.39 1121 2300.39 1139 2300.39 1160C2300.39 1174 2309.39 1189 2321.39 1203C2335.39 1216 2343.39 1235 2343.39 1256C2343.39 1299 2308.39 1333 2265.39 1333ZM2567.39 1539C2567.39 1563 2585.39 1590 2608.39 1594L2436.39 1619C2436.39 1619 2435.39 1619 2434.39 1619C2424.39 1619 2416.39 1611 2416.39 1601V1592V1444V1384V1317V1312C2384.39 1328 2315.39 1354 2308.39 1447C2304.39 1495 2317.39 1532 2338.39 1555C2359.39 1578 2393.39 1588 2414.39 1578C2390.39 1595 2349.39 1619 2295.39 1619C2232.39 1619 2176.39 1583 2161.39 1527C2145.39 1470 2177.39 1411 2232.39 1377C2318.39 1323 2548.39 1289 2553.39 1211C2554.39 1195 2546.39 1176 2533.39 1161C2551.39 1178 2562.39 1198 2566.39 1221C2567.39 1226 2567.39 1232 2567.39 1237V1254V1399V1434V1528V1539ZM2729.09 1559C2729.09 1583 2747.09 1610 2770.09 1614H2538.09C2561.09 1610 2579.09 1583 2579.09 1559V1492V1322V1271V1214V1203C2579.09 1178 2561.09 1152 2538.09 1148L2709.09 1123C2710.09 1123 2711.09 1123 2712.09 1123C2722.09 1123 2729.09 1130 2729.09 1140V1267V1322V1492V1559ZM2992.09 1559C2992.09 1583 3010.09 1610 3033.09 1614H2971.09H2801.09C2824.09 1610 2842.09 1583 2842.09 1559V1531V1264C2842.09 1213 2894.09 1200 2894.09 1163C2894.09 1141 2866.09 1121 2826.09 1121C2784.09 1121 2747.09 1136 2734.09 1142C2827.09 1097 2992.09 1084 2992.09 1250V1531V1559ZM3255.09 1559C3255.09 1583 3273.09 1610 3296.09 1614H3234.09H3064.09C3087.09 1610 3105.09 1583 3105.09 1559V1531V1264C3105.09 1213 3157.09 1200 3157.09 1163C3157.09 1141 3128.09 1121 3089.09 1121C3047.09 1121 3010.09 1136 2997.09 1142C3090.09 1097 3255.09 1084 3255.09 1250V1531V1559ZM3416.44 1559C3416.44 1583 3434.44 1610 3457.44 1614H3395.44H3225.44C3248.44 1610 3266.44 1583 3266.44 1559V1531V1271V1214V1203C3266.44 1178 3248.44 1152 3225.44 1148L3396.44 1123C3397.44 1123 3398.44 1123 3399.44 1123C3409.44 1123 3416.44 1130 3416.44 1140V1267V1531V1559ZM3341.44 1069C3298.44 1069 3264.44 1034 3264.44 992C3264.44 949 3298.44 914 3341.44 914C3384.44 914 3419.44 949 3419.44 992C3419.44 1034 3384.44 1069 3341.44 1069ZM3400.13 1346C3414.13 1206 3519.13 1102 3628.13 1113C3654.13 1116 3676.13 1122 3695.13 1132C3686.13 1128 3677.13 1126 3667.13 1126C3601.13 1126 3547.13 1232 3547.13 1355C3547.13 1478 3601.13 1587 3667.13 1587C3677.13 1587 3686.13 1584 3695.13 1580C3659.13 1608 3616.13 1623 3572.13 1618C3463.13 1607 3385.13 1485 3400.13 1346ZM3850.13 1539C3850.13 1563 3868.13 1590 3891.13 1594L3720.13 1619C3719.13 1619 3718.13 1619 3717.13 1619C3708.13 1619 3700.13 1611 3700.13 1601V1592V1444V1297V994C3700.13 970 3682.13 943 3659.13 939L3830.13 914C3831.13 914 3832.13 914 3833.13 914C3843.13 914 3850.13 922 3850.13 932V1308V1434V1528V1539Z" fill="#1E1E1E"/>
</svg>
