<svg width="10570" height="2403" viewBox="0 0 10570 2403" fill="none" xmlns="http://www.w3.org/2000/svg">
<path d="M473.73 1925.19C203.743 1925.19 68.75 1731.83 68.75 1345.11V529.777C68.75 176.717 223.438 0.1875 532.812 0.1875C660.286 0.1875 758.04 25.9688 826.074 77.5312C894.108 128.378 941.016 202.857 966.797 300.969C992.578 399.081 1005.47 518.677 1005.47 659.758H635.938V492.18C635.938 451.359 630.208 417.342 618.75 390.129C608.008 362.199 585.091 348.234 550 348.234C506.315 348.234 477.311 362.915 462.988 392.277C449.382 421.639 442.578 453.866 442.578 488.957V1405.27C442.578 1456.11 449.023 1497.65 461.914 1529.88C475.521 1561.39 501.66 1577.14 540.332 1577.14C580.436 1577.14 606.934 1561.39 619.824 1529.88C633.431 1497.65 640.234 1455.4 640.234 1403.12V1133.49H539.258V806.926H1001.17V1908H849.707L785.254 1749.02C719.368 1866.46 615.527 1925.19 473.73 1925.19ZM1107.56 1908V17.375H1863.81V382.609H1492.13V751.066H1848.77V1106.63H1492.13V1539.54H1888.52V1908H1107.56ZM2132.41 1908V380.461H1907.9V17.375H2735.05V380.461H2510.54V1908H2132.41ZM3250.76 1908V17.375H3615.99V1908H3250.76ZM3722.38 1908V17.375H4111.25L4285.27 922.941V17.375H4650.51V1908H4280.98L4091.91 962.688V1908H3722.38ZM5407.92 1908V380.461H5183.41V17.375H6010.55V380.461H5786.04V1908H5407.92ZM6523 1925.19C6371.89 1925.19 6256.24 1879.71 6176.03 1788.76C6096.54 1697.1 6056.79 1564.97 6056.79 1392.38V494.328C6056.79 332.479 6096.18 209.66 6174.95 125.871C6254.45 42.082 6370.46 0.1875 6523 0.1875C6675.54 0.1875 6791.2 42.082 6869.97 125.871C6949.46 209.66 6989.21 332.479 6989.21 494.328V1392.38C6989.21 1564.97 6949.11 1697.1 6868.9 1788.76C6789.41 1879.71 6674.11 1925.19 6523 1925.19ZM6526.22 1577.14C6583.51 1577.14 6612.16 1521.64 6612.16 1410.64V487.883C6612.16 394.784 6584.23 348.234 6528.37 348.234C6465.35 348.234 6433.84 395.858 6433.84 491.105V1412.79C6433.84 1471.51 6441 1513.76 6455.32 1539.54C6469.65 1564.61 6493.28 1577.14 6526.22 1577.14ZM7534.96 1925.19C7377.4 1925.19 7261.39 1881.14 7186.91 1793.06C7112.43 1704.26 7075.19 1573.92 7075.19 1402.04V17.375H7442.57V1387C7442.57 1418.51 7444.36 1448.95 7447.95 1478.31C7451.53 1506.96 7459.76 1530.59 7472.65 1549.21C7485.54 1567.83 7506.31 1577.14 7534.96 1577.14C7564.32 1577.14 7585.45 1568.19 7598.34 1550.29C7611.23 1531.67 7619.1 1507.67 7621.97 1478.31C7625.55 1448.95 7627.34 1418.51 7627.34 1387V17.375H7994.72V1402.04C7994.72 1573.92 7957.48 1704.26 7883 1793.06C7808.52 1881.14 7692.51 1925.19 7534.96 1925.19ZM8536.17 1925.19C8399.39 1925.19 8289.1 1882.58 8205.31 1797.36C8122.24 1712.13 8080.7 1592.9 8080.7 1439.64V567.375C8080.7 384.042 8116.87 243.677 8189.2 146.281C8262.25 48.8854 8380.77 0.1875 8544.77 0.1875C8634.28 0.1875 8713.78 16.6589 8783.24 49.6016C8853.42 82.5443 8908.57 131.958 8948.67 197.844C8988.78 263.013 9008.83 345.37 9008.83 444.914V771.477H8632.85V492.18C8632.85 435.604 8625.69 397.648 8611.37 378.312C8597.04 358.26 8574.84 348.234 8544.77 348.234C8509.67 348.234 8486.04 361.125 8473.87 386.906C8461.69 411.971 8455.61 445.63 8455.61 487.883V1434.27C8455.61 1486.55 8463.12 1523.43 8478.16 1544.91C8493.92 1566.4 8516.12 1577.14 8544.77 1577.14C8576.99 1577.14 8599.55 1563.89 8612.44 1537.39C8626.05 1510.9 8632.85 1476.52 8632.85 1434.27V1093.74H9013.12V1451.46C9013.12 1617.6 8971.23 1738.27 8887.44 1813.47C8803.65 1887.95 8686.56 1925.19 8536.17 1925.19ZM9095.88 1908V17.375H9471.86V693.059H9650.18V17.375H10026.2V1908H9650.18V1050.77H9471.86V1908H9095.88ZM10200.2 1393.45L10125 232.219H10509.6L10434.4 1393.45H10200.2ZM10125 1906.93V1586.81H10509.6V1906.93H10125Z" fill="white"/>
<path d="M0 2292.57H10569.8V2402.14H0V2292.57Z" fill="white"/>
</svg>
